<svg width="205" height="29" viewBox="0 0 205 29" fill="none" xmlns="http://www.w3.org/2000/svg">
<path d="M5.78464 14.099C5.78464 14.457 6.37098 14.7039 6.708 14.5748L8.24309 13.9925C8.64937 13.8407 8.70477 13.5122 8.70477 13.0863V10.8206C9.98279 10.4819 11.0923 9.69983 11.8277 8.61944C12.563 7.53906 12.8743 6.23364 12.7038 4.94519C12.5333 3.65674 11.8925 2.47267 10.9004 1.6125C9.90824 0.752335 8.63197 0.274413 7.30819 0.267343C6.54453 0.26594 5.78921 0.423068 5.0918 0.728413C4.39439 1.03376 3.77066 1.48041 3.26156 2.03906C2.35761 3.02722 1.85846 4.30888 1.86036 5.63687C1.86036 5.72977 1.86036 5.82492 1.86036 5.91781C1.87384 6.18127 1.9078 6.44333 1.96193 6.70172C1.96193 6.73117 1.96193 6.76062 1.97809 6.79234C2.41437 8.75438 3.80865 10.3199 5.7731 10.8297L5.78464 14.099ZM7.32204 8.44852C6.77417 8.44852 6.2386 8.28906 5.78306 7.99032C5.32752 7.69158 4.97248 7.26697 4.76281 6.77019C4.55315 6.2734 4.4983 5.72675 4.60518 5.19936C4.71207 4.67198 4.97589 4.18754 5.36329 3.80732C5.7507 3.42709 6.24428 3.16816 6.78162 3.06326C7.31896 2.95835 7.87594 3.01219 8.3821 3.21797C8.88827 3.42374 9.3209 3.77221 9.62528 4.21931C9.92966 4.66641 10.0921 5.19205 10.0921 5.72977C10.0921 6.44886 9.80186 7.13868 9.28487 7.64822C8.76787 8.15776 8.06625 8.44552 7.33358 8.44852H7.32204Z M8.69571 15.6328V17.6424C8.69571 18.2632 8.5295 18.4807 7.93855 18.705L3.92424 20.189C3.37253 20.3974 2.897 20.4359 2.51612 20.2366L1.13108 19.6475C0.609377 19.4436 0.583984 19.097 0.583984 18.5441V18.1363C0.583984 17.5609 0.987955 17.3932 1.53274 17.1916L7.73541 14.9259C8.37484 14.6903 8.69571 14.9645 8.69571 15.6328Z M8.6958 20.0621V22.6177C8.70958 22.7636 8.67097 22.9095 8.58665 23.0303C8.50234 23.1512 8.37763 23.2392 8.23412 23.2793L3.48574 24.9853C3.3428 25.0492 3.18706 25.0808 3.03003 25.0776C2.873 25.0745 2.7187 25.0367 2.57853 24.9672L0.962652 24.3396C0.850238 24.2954 0.75366 24.2195 0.685066 24.1216C0.616472 24.0236 0.578925 23.9079 0.577148 23.7891V22.5838C0.577248 22.461 0.615544 22.3412 0.686912 22.2404C0.75828 22.1396 0.859316 22.0625 0.976502 22.0196L7.86939 19.498C7.96211 19.4644 8.0617 19.4533 8.15971 19.4657C8.25772 19.478 8.35126 19.5133 8.43238 19.5687C8.5135 19.6241 8.5798 19.6978 8.62566 19.7837C8.67152 19.8696 8.69558 19.9651 8.6958 20.0621Z M8.75339 24.6251L8.72338 26.9768C8.72338 27.4073 8.49254 27.5137 8.09319 27.3438L5.07841 26.0751C4.57287 25.8621 4.54286 25.2708 5.30925 25.1054L8.0955 24.1017C8.49485 23.9522 8.75339 24.2037 8.75339 24.6251Z" fill="#FF5500"/>
<path d="M18.4535 22.8421C19.1007 23.4906 19.8687 24.0112 20.7157 24.3759C21.6128 24.7584 22.5816 24.9521 23.5597 24.9446C24.8639 24.9446 25.9766 24.6908 26.8676 24.1878C27.757 23.6846 28.5563 23.0417 29.2337 22.2847L29.3792 22.1216L27.7633 20.6444L27.6086 20.8053C27.0945 21.3418 26.5016 21.8 25.8496 22.1646C25.1774 22.5286 24.4196 22.7129 23.652 22.6993C23.0238 22.7084 22.4006 22.5883 21.8226 22.3468C21.2445 22.1052 20.7244 21.7476 20.2956 21.2969C19.8642 20.8343 19.5251 20.2964 19.296 19.711C18.8234 18.469 18.8234 17.1013 19.296 15.8594C19.5121 15.2759 19.8387 14.7377 20.2587 14.2735C20.6691 13.8308 21.1671 13.4746 21.7222 13.2267C22.296 12.9768 22.9181 12.8516 23.5458 12.8597C24.3224 12.8355 25.09 13.028 25.7596 13.4148C26.3828 13.8056 26.957 14.2672 27.4701 14.79L27.6363 14.9577L29.2753 13.2517L29.1275 13.0999C28.803 12.7634 28.456 12.4485 28.0888 12.1574C27.7048 11.8546 27.2893 11.5926 26.8491 11.3757C26.3754 11.1482 25.8766 10.9749 25.3625 10.8592C24.7721 10.7313 24.1688 10.6698 23.5643 10.6756C22.5861 10.667 21.6171 10.8608 20.7203 11.2443C19.8707 11.6105 19.1023 12.1362 18.4581 12.7917C17.8156 13.4524 17.3079 14.2276 16.9623 15.0755C16.6042 15.9529 16.4216 16.8898 16.4244 17.835C16.4199 18.7762 16.6034 19.7091 16.9646 20.581C17.3069 21.4222 17.8126 22.1902 18.4535 22.8421Z M37.3591 24.9445C38.3572 24.952 39.3464 24.7585 40.2653 24.3759C41.1315 24.015 41.9161 23.489 42.5737 22.8284C43.5662 21.8123 44.239 20.5367 44.5112 19.1547C44.7835 17.7727 44.6438 16.343 44.1088 15.037C43.7619 14.1919 43.2489 13.422 42.5991 12.7713C41.5503 11.7599 40.2205 11.0751 38.7766 10.8026C37.3327 10.5301 35.839 10.6822 34.4828 11.2398C33.6217 11.6003 32.842 12.125 32.189 12.7834C31.5359 13.4418 31.0225 14.2209 30.6785 15.0755C30.3205 15.9529 30.1379 16.8898 30.1407 17.835C30.1367 18.7759 30.3194 19.7086 30.6785 20.5809C31.0249 21.4263 31.5379 22.1963 32.1882 22.8466C32.8442 23.4963 33.6207 24.0169 34.4759 24.3804C35.3865 24.7633 36.3685 24.9555 37.3591 24.9445ZM33.01 19.7109C32.5336 18.4704 32.5295 17.1027 32.9985 15.8594C33.219 15.2764 33.5477 14.7387 33.968 14.2734C34.3771 13.8264 34.8794 13.471 35.4408 13.2313C36.0461 12.9744 36.6997 12.8455 37.3591 12.8529C38.0087 12.8505 38.6512 12.9858 39.2427 13.2494C39.8148 13.5041 40.3313 13.8649 40.764 14.312C41.202 14.7712 41.5447 15.3099 41.7727 15.8979C42.2496 17.1384 42.2537 18.5062 41.7843 19.7495C41.5656 20.3212 41.2373 20.8465 40.817 21.2969C40.3983 21.738 39.8915 22.0897 39.3281 22.33C38.7229 22.5871 38.0693 22.716 37.4098 22.7084C36.7592 22.7135 36.115 22.5806 35.5216 22.3187C34.9546 22.0682 34.4426 21.7119 34.0142 21.2697C33.5803 20.8184 33.2393 20.2892 33.01 19.7109Z M53.0356 12.9141C54.0536 12.9141 54.8315 13.229 55.4086 13.8747C55.9857 14.5204 56.2789 15.4606 56.2789 16.6342V24.6387H58.7143V16.786C58.7045 16.2201 58.8008 15.6572 58.9982 15.1253C59.1679 14.6738 59.4268 14.2596 59.76 13.9064C60.0704 13.5837 60.4484 13.3309 60.868 13.1656C61.2974 12.9971 61.756 12.9117 62.2184 12.9141C63.2549 12.9141 64.0397 13.229 64.6168 13.8747C65.1939 14.5204 65.4871 15.4606 65.4871 16.6863V24.6387H67.9479V16.2219C67.9479 14.5159 67.4862 13.152 66.5628 12.1687C65.6395 11.1854 64.3421 10.6756 62.717 10.6756C62.154 10.6689 61.5928 10.7406 61.0504 10.8886C60.5743 11.0219 60.1197 11.2202 59.6999 11.4777C59.3047 11.7254 58.9432 12.0215 58.6242 12.359C58.4017 12.5966 58.1928 12.8462 57.9987 13.1067C57.6207 12.4607 57.104 11.9033 56.4843 11.4731C55.7364 10.943 54.7784 10.6756 53.6404 10.6756C53.1046 10.6709 52.5712 10.7474 52.0591 10.9022C51.2067 11.1621 50.4454 11.6511 49.8615 12.3137C49.7438 12.4496 49.6307 12.5856 49.5176 12.726V10.9566H47.043V24.6364H49.506V16.8631C49.4992 16.3182 49.5914 15.7766 49.7784 15.2635C49.9485 14.8053 50.2037 14.3821 50.531 14.0152C50.8404 13.6707 51.2192 13.3929 51.6436 13.1995C52.0809 13.0062 52.556 12.9088 53.0356 12.9141Z M73.5296 22.5498C73.6889 22.7423 73.8597 22.9304 74.0421 23.1116C74.3946 23.4662 74.789 23.7781 75.217 24.0406C75.674 24.316 76.1661 24.5308 76.6806 24.6795C77.2612 24.8439 77.863 24.9248 78.4673 24.9196C79.3172 24.9185 80.1584 24.7514 80.9419 24.428C81.7406 24.1029 82.4656 23.6254 83.0749 23.0233C83.7167 22.3807 84.2255 21.6221 84.573 20.7894C84.9627 19.8347 85.1549 18.8135 85.1386 17.7852C85.1547 16.7561 84.9624 15.7342 84.573 14.7787C84.2252 13.9429 83.7112 13.1835 83.061 12.5448C81.839 11.3542 80.1891 10.6829 78.4673 10.6756C77.8649 10.6686 77.2652 10.7543 76.6898 10.9294C76.1792 11.0877 75.6918 11.3109 75.2401 11.5932C74.8086 11.8678 74.4132 12.1935 74.0628 12.5629C73.8782 12.76 73.6981 12.9639 73.5296 13.1701V10.9566H71.0688V28.7327H73.5296V22.5498ZM73.8389 15.7823C74.0783 15.2082 74.4331 14.6872 74.8823 14.2508C75.3153 13.8336 75.8233 13.4986 76.3805 13.263C76.9241 13.032 77.5102 12.9132 78.1026 12.9141C78.6994 12.9111 79.2906 13.0267 79.8408 13.2539C80.3837 13.4783 80.8728 13.8117 81.2766 14.2327C81.703 14.6818 82.0377 15.2071 82.2623 15.7801C82.5119 16.4315 82.6341 17.1233 82.6224 17.8191C82.6342 18.5255 82.5113 19.2279 82.26 19.8899C82.0448 20.4586 81.7159 20.9793 81.2928 21.4215C80.8872 21.8314 80.3979 22.1526 79.8569 22.364C78.7403 22.8067 77.4905 22.7977 76.3805 22.3391C75.8234 22.1042 75.3154 21.77 74.8823 21.3535C74.4319 20.9137 74.077 20.3888 73.8389 19.8106C73.5755 19.1701 73.4437 18.4849 73.4511 17.7942C73.4414 17.1048 73.5733 16.4206 73.8389 15.7823Z M93.4767 10.9656C92.903 11.1422 92.3621 11.4085 91.8747 11.7541C91.3847 12.1031 90.9478 12.5188 90.5774 12.9888C90.3934 13.2211 90.2238 13.4639 90.0695 13.7161V10.9566H87.6064V24.6364H90.0672V19.14C90.0522 18.2739 90.1888 17.4118 90.4712 16.5912C90.709 15.9145 91.0835 15.2918 91.5723 14.7605C92.0253 14.2812 92.5812 13.9067 93.1997 13.664C93.8329 13.4175 94.5084 13.2929 95.1895 13.2969H95.5681V10.7323H95.3373C94.7083 10.7097 94.0797 10.7885 93.4767 10.9656Z M107.491 12.803C106.927 12.1452 106.226 11.6144 105.434 11.2466C104.577 10.8724 103.649 10.678 102.71 10.6757C101.772 10.6733 100.843 10.8631 99.9839 11.233C99.1833 11.5957 98.4662 12.1144 97.8764 12.7577C97.2733 13.4205 96.8034 14.1892 96.4913 15.0234C96.1583 15.9135 95.9903 16.855 95.995 17.8033C95.9848 18.7966 96.1746 19.7822 96.5537 20.7033C96.9018 21.5477 97.4146 22.3174 98.0633 22.9689C98.6962 23.5951 99.4505 24.0904 100.282 24.4257C101.13 24.7685 102.038 24.9447 102.955 24.9445C104.112 24.9816 105.261 24.7405 106.302 24.2422C107.204 23.7709 108.012 23.143 108.687 22.3889L108.837 22.2235L107.255 20.8324L107.103 20.9865C106.585 21.5148 105.984 21.9584 105.323 22.3005C104.604 22.6415 103.813 22.8086 103.015 22.7877C102.464 22.789 101.916 22.6939 101.399 22.5067C100.888 22.3189 100.419 22.0384 100.014 21.6798C99.5909 21.3002 99.2454 20.845 98.9959 20.3385C98.7557 19.8378 98.5998 19.3022 98.5343 18.7526H109.153L109.181 18.5623C109.192 18.4395 109.194 18.3161 109.188 18.193V17.912C109.194 16.9603 109.05 16.0134 108.76 15.1049C108.494 14.2638 108.063 13.4818 107.491 12.803ZM98.5227 16.8449C98.5936 16.3349 98.7342 15.8365 98.9405 15.3632C99.1575 14.8641 99.4587 14.4045 99.8316 14.0038C100.186 13.6253 100.612 13.3176 101.085 13.0976C101.567 12.8796 102.092 12.769 102.622 12.7736C103.173 12.7574 103.72 12.864 104.222 13.0853C104.724 13.3067 105.169 13.637 105.522 14.0514C105.866 14.4543 106.134 14.9147 106.311 15.4108C106.478 15.8748 106.591 16.3559 106.648 16.8449H98.5227Z M123.105 12.7759C122.443 12.1246 121.659 11.6046 120.796 11.2443C119.911 10.8566 118.954 10.6483 117.984 10.632C117.015 10.6157 116.051 10.7917 115.153 11.1494C114.254 11.5072 113.438 12.0393 112.754 12.7139C112.069 13.3885 111.531 14.1917 111.17 15.0755C110.811 15.9526 110.628 16.8897 110.632 17.835C110.627 18.776 110.81 19.7089 111.17 20.5809C111.516 21.4266 112.029 22.1967 112.68 22.8466C113.336 23.4968 114.112 24.0175 114.968 24.3804C115.877 24.7647 116.858 24.9583 117.848 24.9491C118.847 24.9567 119.836 24.7632 120.755 24.3804C121.621 24.0193 122.405 23.4934 123.063 22.833C124.056 21.8169 124.728 20.5413 125.001 19.1593C125.273 17.7773 125.133 16.3475 124.598 15.0415C124.256 14.1977 123.749 13.428 123.105 12.7759ZM122.288 19.7472C122.068 20.3201 121.738 20.8462 121.316 21.2969C120.897 21.7385 120.389 22.0903 119.824 22.33C119.22 22.5868 118.567 22.7157 117.909 22.7084C117.258 22.714 116.614 22.581 116.02 22.3187C115.453 22.0688 114.941 21.7125 114.513 21.2697C114.081 20.8179 113.743 20.2886 113.516 19.7109C113.272 19.0932 113.149 18.4361 113.153 17.7738C113.149 17.1164 113.267 16.4637 113.502 15.8481C113.722 15.2701 114.049 14.7364 114.464 14.2734C114.874 13.8258 115.377 13.4703 115.939 13.2313C116.544 12.9744 117.197 12.8455 117.855 12.8529C118.506 12.8477 119.15 12.9807 119.744 13.2426C120.316 13.4962 120.833 13.8572 121.265 14.3052C121.703 14.7649 122.046 15.3034 122.276 15.8911C122.749 17.133 122.749 18.5008 122.276 19.7427L122.288 19.7472Z M132.856 10.7776C131.949 10.7664 131.045 10.8676 130.164 11.0789C129.371 11.2834 128.598 11.5579 127.856 11.8991L127.666 11.9852L128.423 14.0242L128.654 13.9223C129.26 13.6403 129.89 13.4091 130.536 13.2312C131.226 13.0499 131.938 12.9623 132.652 12.9707C133.86 12.9707 134.806 13.2562 135.464 13.8226C136.122 14.389 136.427 15.2273 136.427 16.351V16.5187C135.9 16.3827 135.36 16.2694 134.811 16.1811C134.047 16.0704 133.275 16.0181 132.502 16.0248C131.7 16.0177 130.899 16.1144 130.122 16.3125C129.444 16.4846 128.801 16.773 128.225 17.1644C127.691 17.5314 127.258 18.0216 126.962 18.5917C126.659 19.2006 126.507 19.8715 126.519 20.5492C126.504 21.2192 126.663 21.8818 126.981 22.475C127.28 23.0076 127.693 23.4711 128.19 23.8344C128.7 24.204 129.273 24.4803 129.882 24.65C130.5 24.825 131.139 24.9142 131.782 24.9151C133.019 24.9151 134.063 24.6704 134.885 24.1923C135.453 23.8682 135.974 23.4704 136.434 23.0097V24.6319H138.818V16.3238C138.818 14.5113 138.294 13.1157 137.258 12.18C136.221 11.2443 134.748 10.7776 132.856 10.7776ZM136.464 19.5501C136.469 20.0173 136.357 20.4786 136.138 20.8936C135.917 21.3041 135.609 21.6639 135.236 21.9494C134.827 22.2606 134.366 22.4991 133.874 22.654C133.331 22.8293 132.764 22.9165 132.193 22.9123C131.779 22.9146 131.367 22.8574 130.97 22.7423C130.607 22.6391 130.266 22.4733 129.963 22.253C129.684 22.0501 129.452 21.7904 129.284 21.4917C129.115 21.178 129.031 20.827 129.04 20.4722C129.025 20.1137 129.102 19.7573 129.264 19.4354C129.425 19.1134 129.665 18.8359 129.963 18.628C130.596 18.1748 131.531 17.9302 132.733 17.9302C133.464 17.9236 134.194 17.982 134.915 18.1046C135.483 18.2111 136.002 18.3312 136.459 18.4399L136.464 19.5501Z M144.508 5.5032H142.045V24.6387H144.508V5.5032Z M161.226 28.7327V10.9566H158.765V13.0455C158.606 12.8529 158.435 12.6648 158.255 12.4836C157.901 12.1287 157.506 11.8161 157.078 11.5524C156.621 11.2775 156.128 11.0627 155.614 10.9135C155.034 10.7499 154.432 10.6698 153.828 10.6756C152.981 10.6762 152.144 10.8426 151.364 11.165C150.57 11.4962 149.847 11.973 149.234 12.5697C148.584 13.2096 148.07 13.9696 147.722 14.8059C147.332 15.7605 147.14 16.7818 147.156 17.8101C147.14 18.8384 147.332 19.8596 147.722 20.8143C148.07 21.6505 148.584 22.4106 149.234 23.0505C149.845 23.6466 150.57 24.1192 151.367 24.4416C152.147 24.7579 152.983 24.9211 153.828 24.9219C154.427 24.9277 155.025 24.8468 155.6 24.6817C156.117 24.5255 156.607 24.2965 157.057 24.002C157.486 23.7208 157.88 23.3916 158.232 23.021C158.417 22.8239 158.597 22.6223 158.765 22.4138V28.7236L161.226 28.7327ZM158.456 19.8016C158.218 20.3797 157.863 20.9046 157.412 21.3445C156.979 21.761 156.471 22.0951 155.914 22.33C155.367 22.559 154.779 22.6781 154.184 22.6805C153.59 22.6828 153.001 22.5683 152.452 22.3436C151.909 22.1183 151.42 21.7842 151.016 21.3626C150.594 20.9136 150.265 20.3889 150.046 19.8174C149.795 19.1664 149.672 18.4744 149.684 17.7784C149.673 17.0735 149.796 16.3727 150.046 15.7121C150.263 15.144 150.591 14.6234 151.014 14.1805C151.416 13.7728 151.901 13.4525 152.438 13.2403C152.999 13.0202 153.598 12.9094 154.201 12.9141C154.794 12.9142 155.38 13.0337 155.924 13.2652C156.481 13.5009 156.989 13.8358 157.422 14.253C157.871 14.6895 158.226 15.2104 158.465 15.7846C158.729 16.4201 158.861 17.1011 158.853 17.7874C158.857 18.4779 158.722 19.1623 158.456 19.8016Z M165.697 23.3745C166.173 23.8689 166.753 24.2555 167.396 24.5073C168.119 24.7898 168.89 24.9307 169.668 24.9219C170.873 24.9219 171.875 24.6545 172.641 24.1267C173.174 23.7582 173.649 23.3164 174.054 22.8149V24.6274H176.489V10.9566H174.054V18.7571C174.059 19.3063 173.958 19.8514 173.756 20.3634C173.573 20.826 173.301 21.2498 172.955 21.6118C172.617 21.9575 172.208 22.228 171.755 22.4048C171.271 22.5917 170.755 22.6856 170.236 22.6812C169.109 22.6812 168.237 22.3459 167.641 21.682C167.046 21.0182 166.734 20.078 166.734 18.9112V10.9566H164.269V19.396C164.26 20.1526 164.383 20.9052 164.633 21.6209C164.862 22.2707 165.224 22.8675 165.697 23.3745Z M182.565 5.88837H179.815V8.5097H182.565V5.88837Z M182.408 10.9566H179.945V24.6387H182.408V10.9566Z M188.486 5.5032H186.022V24.6387H188.486V5.5032Z M193.151 22.9712C193.784 23.5973 194.538 24.0927 195.369 24.428C196.223 24.7723 197.138 24.9478 198.061 24.9445C199.218 24.981 200.366 24.7399 201.406 24.2422C202.308 23.7703 203.116 23.1425 203.791 22.3889L203.941 22.2235L202.359 20.8324L202.207 20.9865C201.688 21.5141 201.087 21.9576 200.427 22.3005C199.708 22.6415 198.917 22.8086 198.119 22.7876C197.567 22.789 197.02 22.6939 196.503 22.5067C195.992 22.3194 195.522 22.0388 195.118 21.6798C194.695 21.3002 194.349 20.845 194.1 20.3385C193.859 19.8382 193.703 19.3024 193.638 18.7526H204.257L204.285 18.5623C204.296 18.4395 204.299 18.3161 204.294 18.193V17.912C204.3 16.9603 204.156 16.0134 203.867 15.1049C203.6 14.2638 203.169 13.4818 202.597 12.803C202.033 12.1452 201.332 11.6144 200.54 11.2466C199.683 10.8724 198.755 10.678 197.817 10.6757C196.878 10.6733 195.95 10.8631 195.09 11.233C194.285 11.5949 193.563 12.1137 192.969 12.7577C192.366 13.4205 191.896 14.1892 191.584 15.0234C191.25 15.9133 191.082 16.8549 191.087 17.8033C191.076 18.7974 191.266 19.7839 191.646 20.7055C191.993 21.5498 192.504 22.3194 193.151 22.9712ZM194.044 15.3632C194.261 14.8638 194.562 14.4041 194.935 14.0038C195.29 13.6253 195.716 13.3176 196.189 13.0976C196.671 12.8796 197.196 12.769 197.726 12.7736C198.306 12.7675 198.88 12.8931 199.402 13.1406C199.871 13.3658 200.287 13.6827 200.626 14.0718C200.97 14.4743 201.238 14.9349 201.415 15.4312C201.581 15.8886 201.695 16.3627 201.754 16.8449H193.629C193.699 16.335 193.839 15.8366 194.044 15.3632Z" fill="black"/>
</svg>
