<svg width="136" height="29" viewBox="0 0 136 29" fill="none" xmlns="http://www.w3.org/2000/svg">
<path d="M5.66616 14.7549C5.66616 15.113 6.254 15.36 6.58826 15.2331L8.12125 14.6484C8.52927 14.4966 8.58229 14.168 8.58229 13.742V11.4758C9.85838 11.137 10.9663 10.355 11.7006 9.27458C12.435 8.19418 12.746 6.8887 12.576 5.6001C12.406 4.3115 11.7666 3.12717 10.7762 2.26662C9.78586 1.40607 8.5117 0.927651 7.18993 0.920044C6.47355 0.920038 5.76421 1.05912 5.10265 1.3293C4.44109 1.59949 3.84032 1.99546 3.33483 2.49448C2.82935 2.9935 2.42909 3.58575 2.15705 4.23723C1.885 4.88872 1.74653 5.5866 1.74956 6.29083C1.74956 6.38375 1.74956 6.47892 1.74956 6.57184C1.76379 6.83541 1.79847 7.09754 1.8533 7.35593C1.8533 7.38539 1.8533 7.41485 1.86943 7.44657C2.30512 9.40906 3.7044 10.9772 5.66616 11.4871V14.7549ZM7.21298 9.10313C6.66586 9.10313 6.13103 8.94364 5.67611 8.64483C5.2212 8.34602 4.86664 7.92131 4.65726 7.42441C4.44789 6.92751 4.39311 6.38073 4.49985 5.85322C4.60658 5.32571 4.87005 4.84116 5.25692 4.46085C5.64379 4.08054 6.1367 3.82154 6.67331 3.71661C7.20991 3.61168 7.76612 3.66554 8.27159 3.87136C8.77707 4.07718 9.2091 4.42573 9.51307 4.87294C9.81703 5.32014 9.97927 5.8459 9.97927 6.38375C9.97927 7.10497 9.68782 7.79666 9.16904 8.30664C8.65026 8.81663 7.94665 9.10313 7.21298 9.10313Z M8.57539 16.2982V18.3083C8.57539 18.9292 8.40941 19.149 7.81927 19.3711L3.80584 20.8486C3.25489 21.0571 2.7777 21.0957 2.39965 20.8962L1.0165 20.3048C0.493211 20.1008 0.460938 19.7541 0.460938 19.2012V18.7932C0.460938 18.2199 0.862049 18.0522 1.40839 17.8483L7.60718 15.5866C8.25496 15.3464 8.57539 15.6206 8.57539 16.2982Z M8.57539 20.7195V23.2757C8.58961 23.4216 8.55123 23.5678 8.46696 23.6888C8.3827 23.8097 8.25789 23.8977 8.11434 23.9374L3.37246 25.6438C3.2299 25.7084 3.07429 25.7403 2.91736 25.7371C2.76043 25.734 2.60627 25.6959 2.4665 25.6257L0.852832 24.998C0.73765 24.9545 0.638561 24.8777 0.568609 24.7778C0.498657 24.6779 0.461121 24.5595 0.460941 24.4382V23.2417C0.460539 23.1191 0.498315 22.9993 0.569195 22.8984C0.640075 22.7976 0.740662 22.7204 0.857442 22.6774L7.75011 20.1552C7.8427 20.1216 7.94215 20.1105 8.04003 20.1229C8.13791 20.1352 8.23132 20.1705 8.31233 20.2259C8.39334 20.2813 8.45955 20.3551 8.50535 20.441C8.55115 20.5269 8.57517 20.6225 8.57539 20.7195Z M8.63328 25.2858L8.60331 27.6471C8.60331 28.0799 8.37279 28.1842 7.97168 28.0142L4.95872 26.7406C4.45157 26.5299 4.42391 25.9362 5.18925 25.7707L7.97168 24.7691C8.37509 24.6105 8.63328 24.862 8.63328 25.2858Z" fill="#FF5500"/>
<path d="M19.1955 24.0824C19.8413 24.7318 20.6083 25.2528 21.4547 25.6166C22.3501 26.0008 23.3178 26.1954 24.2947 26.1877C25.4442 26.2232 26.5831 25.9622 27.5981 25.4308C28.4888 24.9272 29.2894 24.2834 29.9679 23.525L30.1132 23.3641L28.511 21.8843L28.3566 22.0474C27.8432 22.5842 27.2512 23.0425 26.6 23.4071C25.9291 23.7723 25.1721 23.9568 24.4054 23.9419C23.7739 23.9518 23.1474 23.8308 22.5667 23.5868C21.986 23.3428 21.4642 22.9812 21.0351 22.5256C20.6043 22.0634 20.2664 21.5251 20.0393 20.9393C19.7948 20.3218 19.672 19.6643 19.6773 19.0017C19.6724 18.3448 19.7904 17.6927 20.0254 17.0778C20.2472 16.5006 20.5772 15.9694 20.9982 15.5118C21.4086 15.0692 21.9068 14.7137 22.4621 14.4671C23.03 14.2154 23.6464 14.0871 24.2694 14.091C25.045 14.0656 25.8119 14.2582 26.4801 14.6462C27.1054 15.0352 27.6812 15.4962 28.1952 16.0195L28.3612 16.1872L30.0002 14.5034L29.8527 14.3493C29.5284 14.0101 29.1818 13.6922 28.8153 13.3975C28.0226 12.7643 27.0916 12.3198 26.0951 12.099C25.5048 11.9705 24.9016 11.9081 24.297 11.9132C23.3201 11.9055 22.3524 12.1001 21.457 12.4843C20.6087 12.8497 19.8412 13.3748 19.1978 14.0298C18.5553 14.6907 18.0482 15.467 17.704 16.3163C17.3444 17.1935 17.1612 18.1308 17.1646 19.0765C17.1606 20.0178 17.3438 20.9509 17.704 21.8231C18.0473 22.6643 18.5539 23.4317 19.1955 24.0824Z M32.912 24.0847C33.5671 24.7339 34.3426 25.2539 35.1965 25.6166C36.1053 26.002 37.086 26.1965 38.0757 26.1877C39.0724 26.194 40.06 26.0005 40.978 25.6189C41.8425 25.257 42.6258 24.731 43.2833 24.0711C44.2744 23.0547 44.9462 21.7789 45.2181 20.3965C45.49 19.0142 45.3505 17.5841 44.8163 16.2778C44.4704 15.4322 43.9581 14.6621 43.3086 14.0116C42.2617 12.9994 40.9338 12.3137 39.4918 12.0408C38.0498 11.7678 36.5579 11.9197 35.2034 12.4775C34.3436 12.839 33.5653 13.3643 32.9132 14.0232C32.2611 14.6821 31.7483 15.4615 31.4044 16.3163C31.0466 17.1939 30.8642 18.1311 30.8673 19.0765C30.8633 20.0176 31.0457 20.9505 31.4044 21.8231C31.7513 22.6668 32.2636 23.4352 32.912 24.0847ZM33.7281 17.0868C33.9487 16.5116 34.2745 15.9809 34.6893 15.5209C35.0977 15.073 35.5993 14.7168 36.1601 14.4762C36.7651 14.2211 37.4175 14.093 38.0757 14.1C38.7253 14.0952 39.3683 14.2273 39.9614 14.4875C41.128 15.003 42.0396 15.9513 42.4972 17.1253C42.9734 18.3661 42.9775 19.7343 42.5087 20.9778C42.2899 21.5519 41.9604 22.079 41.5382 22.5301C41.1172 22.9733 40.6079 23.3266 40.0421 23.568C39.4372 23.8233 38.7847 23.9515 38.1265 23.9442C37.4769 23.949 36.8339 23.8169 36.2408 23.5567C35.675 23.3054 35.1639 22.9491 34.7354 22.5075C34.3046 22.0538 33.9665 21.523 33.7396 20.9438C33.2634 19.703 33.2593 18.3349 33.7281 17.0913V17.0868Z M56.6099 15.1515C57.2116 15.8314 57.5158 16.756 57.5158 17.923V25.8795H59.9755V17.4358C59.9832 16.6789 59.8593 15.9263 59.609 15.2104C59.3828 14.561 59.0234 13.964 58.5532 13.4564C58.0786 12.9625 57.5005 12.5759 56.8588 12.3234C56.1387 12.0466 55.3706 11.9104 54.5974 11.9223C53.3918 11.9223 52.3936 12.1897 51.6283 12.7177C51.0944 13.0845 50.6176 13.5258 50.2128 14.0275V12.2146H47.7485V25.8795H50.2059V18.0771C50.1978 17.5278 50.2923 16.9817 50.4849 16.4659C50.6607 16.0028 50.9314 15.5801 51.2802 15.224C51.6233 14.8784 52.0364 14.6074 52.4927 14.4286C52.9758 14.2423 53.4906 14.1484 54.0096 14.1521C55.1576 14.1521 56.0174 14.4785 56.6099 15.1515Z M65.6535 6.73956H63.1938V25.8795H65.6535V6.73956Z M69.7336 25.0796C70.2412 25.4497 70.813 25.7261 71.4211 25.8954C72.0383 26.0717 72.6779 26.1609 73.3206 26.1605C74.5539 26.1605 75.5959 25.918 76.4165 25.4376C76.9843 25.1114 77.5047 24.7112 77.9634 24.2479V25.8704H80.3447V17.565C80.3447 15.7521 79.8214 14.3561 78.7863 13.4202C77.7513 12.4843 76.2782 12.0106 74.3879 12.0106C73.4801 12.0005 72.5747 12.1033 71.6931 12.3166C70.9013 12.5246 70.1298 12.8014 69.3879 13.1437L69.1988 13.2298L69.9549 15.2694L70.1855 15.1651C70.7912 14.8841 71.4196 14.6529 72.0642 14.4739C72.7537 14.2937 73.4648 14.206 74.1782 14.2133C75.3838 14.2133 76.3289 14.5011 76.9859 15.0677C77.6429 15.6342 77.9634 16.4795 77.9634 17.6012V17.7712C77.4317 17.6316 76.8931 17.5189 76.3497 17.4335C75.5867 17.3217 74.8159 17.2694 74.0445 17.2772C73.2381 17.2696 72.4342 17.3672 71.6539 17.5672C70.9758 17.7384 70.3342 18.0269 69.759 18.4193C69.2275 18.7858 68.796 19.2754 68.5026 19.8447C68.1997 20.453 68.048 21.1233 68.06 21.8004C68.0452 22.4705 68.2038 23.1334 68.5211 23.7267C68.8215 24.2582 69.2351 24.7197 69.7336 25.0796ZM71.4972 19.8674C72.1311 19.4028 73.0624 19.1672 74.2634 19.1672C74.9936 19.1603 75.7228 19.2194 76.4419 19.3439C77.009 19.4482 77.5277 19.5705 77.9841 19.6793V20.7897C77.989 21.2563 77.8774 21.717 77.6591 22.1313C77.4378 22.5419 77.1307 22.9018 76.7577 23.1873C76.3504 23.4989 75.8909 23.7382 75.3999 23.8944C74.8573 24.0677 74.2899 24.1541 73.7194 24.1504C73.3059 24.1528 72.8943 24.0955 72.4976 23.9805C72.135 23.8791 71.7943 23.7132 71.4925 23.491C71.2125 23.2892 70.9811 23.0292 70.8148 22.7296C70.6457 22.4159 70.5616 22.0647 70.5705 21.7098C70.557 21.3515 70.6347 20.9956 70.7966 20.6743C70.9584 20.3529 71.1992 20.0764 71.4972 19.8697V19.8674Z M86.0246 6.73956H83.5649V25.8795H86.0246V6.73956Z M92.092 6.73956H89.6323V25.8795H92.092V6.73956Z M104.402 24.2479V25.8704H106.783V17.565C106.783 15.752 106.26 14.3561 105.225 13.4202C104.19 12.4842 102.717 12.0106 100.826 12.0106C99.9212 11.9995 99.018 12.1008 98.1385 12.312C97.3469 12.5178 96.5755 12.7924 95.8333 13.1324L95.6443 13.2185L96.4004 15.258L96.6309 15.1538C97.2367 14.8727 97.8651 14.6415 98.5097 14.4626C99.1991 14.2823 99.9102 14.1947 100.624 14.202C101.829 14.202 102.774 14.4898 103.431 15.0563C104.088 15.6229 104.409 16.4681 104.409 17.5899V17.7599C103.877 17.6203 103.339 17.5076 102.795 17.4222C102.032 17.3103 101.261 17.258 100.49 17.2658C99.6835 17.2583 98.8797 17.3558 98.0993 17.5559C97.4212 17.727 96.7796 18.0156 96.2044 18.408C95.6729 18.7745 95.2415 19.264 94.9481 19.8334C94.6483 20.4424 94.4997 21.1127 94.5147 21.7891C94.4998 22.4592 94.6585 23.122 94.9757 23.7153C95.2746 24.2491 95.6875 24.7129 96.186 25.075C96.6936 25.4451 97.2654 25.7216 97.8734 25.8908C98.4907 26.0671 99.1302 26.1564 99.773 26.156C101.006 26.156 102.048 25.9135 102.871 25.4331C103.433 25.1066 103.948 24.7081 104.402 24.2479ZM100.165 24.1436C99.7513 24.146 99.3397 24.0887 98.9431 23.9737C98.5804 23.8722 98.2398 23.7063 97.938 23.4842C97.658 23.2823 97.4266 23.0224 97.2602 22.7227C97.0911 22.409 97.007 22.0579 97.0159 21.703C97.0016 21.3447 97.0784 20.9886 97.2394 20.6669C97.4004 20.3452 97.6405 20.068 97.938 19.8606C98.5719 19.396 99.5032 19.1603 100.704 19.1603C101.434 19.1532 102.164 19.2124 102.883 19.3371C103.45 19.4413 103.968 19.5637 104.425 19.6725V20.7829C104.43 21.2495 104.318 21.7101 104.1 22.1245C103.879 22.5351 103.571 22.895 103.199 23.1805C102.791 23.4921 102.332 23.7313 101.841 23.8875C101.3 24.0634 100.734 24.153 100.165 24.1527V24.1436Z M115.954 25.9815L122.01 12.1942H119.352L114.946 22.8134L110.566 12.1942H107.855L113.884 25.9815H115.954Z M124.253 24.2139C124.886 24.8395 125.64 25.3349 126.47 25.671C127.323 26.0162 128.238 26.1918 129.16 26.1877C130.314 26.223 131.459 25.9811 132.496 25.4829C133.397 25.0096 134.205 24.381 134.88 23.6269L135.027 23.4615L133.448 22.0701L133.296 22.2242C132.78 22.7537 132.179 23.1976 131.519 23.5386C130.801 23.8806 130.01 24.0478 129.213 24.0258C128.663 24.027 128.116 23.9318 127.6 23.7448C127.09 23.5578 126.62 23.2771 126.217 22.9176C125.794 22.5378 125.449 22.0825 125.2 21.5761C124.96 21.0752 124.804 20.5395 124.739 19.9898H135.343L135.371 19.7971C135.389 19.6771 135.399 19.5559 135.401 19.4345V19.1535C135.406 18.2007 135.261 17.2529 134.972 16.3435C134.703 15.5061 134.273 14.7275 133.704 14.0502C133.136 13.3874 132.428 12.8538 131.629 12.4865C130.774 12.1112 129.848 11.9159 128.911 11.9131C127.974 11.9104 127.047 12.1003 126.189 12.4707C125.384 12.8323 124.663 13.3521 124.07 13.998C123.468 14.6606 122.998 15.4296 122.687 16.2642C122.353 17.1534 122.184 18.0945 122.189 19.0425C122.179 20.0368 122.369 21.0233 122.747 21.9454C123.094 22.7907 123.605 23.5613 124.253 24.2139ZM125.145 16.6041C125.362 16.1046 125.663 15.6448 126.037 15.2444C126.39 14.8659 126.814 14.5581 127.286 14.338C127.767 14.1199 128.292 14.0093 128.822 14.0139C129.371 13.9992 129.916 14.1065 130.418 14.3278C130.919 14.5491 131.363 14.8787 131.717 15.292C132.061 15.6951 132.328 16.1557 132.505 16.6517C132.67 17.1103 132.784 17.5852 132.844 18.0681H124.734C124.808 17.5642 124.948 17.072 125.152 16.6041H125.145Z" fill="black"/>
</svg>
