<svg width="201" height="29" viewBox="0 0 201 29" fill="none" xmlns="http://www.w3.org/2000/svg">
<g clip-path="url(#clip0)">
<path d="M5.50822 14.7722C5.50822 15.1545 6.12839 15.4182 6.48487 15.2827L8.111 14.6585C8.54072 14.4963 8.59932 14.1455 8.59932 13.6906V11.2709C9.95015 10.9094 11.1231 10.0752 11.901 8.92259C12.6788 7.76999 13.0089 6.37711 12.8302 5.00185C12.6514 3.62658 11.9759 2.36207 10.9287 1.44245C9.88148 0.522826 8.53351 0.0103746 7.13434 -2.74454e-05C6.32652 -0.0027825 5.52727 0.163971 4.78914 0.489266C4.05101 0.814562 3.39073 1.29103 2.85172 1.88733C1.89387 2.94356 1.36573 4.31455 1.36965 5.73464C1.36965 5.83385 1.36965 5.93548 1.36965 6.03468C1.38391 6.31606 1.41983 6.59594 1.47708 6.8719C1.47708 6.90335 1.47708 6.93481 1.49417 6.96868C1.95564 9.06414 3.43039 10.7386 5.50822 11.283V14.7722ZM7.14655 8.73748C6.56706 8.73748 6.00058 8.56718 5.51875 8.24813C5.03692 7.92907 4.66138 7.47559 4.43962 6.94502C4.21786 6.41445 4.15984 5.83063 4.27289 5.26738C4.38594 4.70413 4.665 4.18675 5.07476 3.78067C5.48452 3.37459 6.00659 3.09805 6.57494 2.98601C7.1433 2.87397 7.73242 2.93148 8.2678 3.15124C8.80318 3.37101 9.26077 3.74318 9.58272 4.22068C9.90467 4.69818 10.0765 5.25956 10.0765 5.83385C10.0765 6.60394 9.76782 7.34249 9.21834 7.88702C8.66887 8.43156 7.92362 8.73748 7.14655 8.73748Z M8.59943 16.4225V18.5687C8.59943 19.2317 8.42363 19.4664 7.80101 19.7036L3.54769 21.2812C2.96414 21.5038 2.46116 21.545 2.05829 21.332L0.593315 20.7005C0.0415061 20.4827 0.0146484 20.1125 0.0146484 19.5221V19.0841C0.0146484 18.472 0.441934 18.2929 1.0206 18.0751L7.57882 15.6554C8.24783 15.4038 8.59943 15.6966 8.59943 16.4225Z M8.59943 21.1408V23.8702C8.61498 24.0261 8.57453 24.1825 8.4852 24.3117C8.39587 24.441 8.2634 24.5348 8.1111 24.5768L3.08866 26.3988C2.93748 26.4671 2.77275 26.5007 2.60666 26.4974C2.44057 26.494 2.27736 26.4537 2.1291 26.3795L0.419961 25.7092C0.298877 25.662 0.194966 25.5797 0.121791 25.4731C0.0486149 25.3665 0.00957441 25.2405 0.00976633 25.1115V23.8339C0.00987216 23.7028 0.0503785 23.5749 0.125865 23.4672C0.201352 23.3595 0.308219 23.2773 0.432169 23.2314L7.71312 20.5359C7.81202 20.4975 7.91892 20.4838 8.02444 20.4958C8.12996 20.5079 8.23088 20.5454 8.31836 20.6051C8.40584 20.6648 8.47721 20.7449 8.52621 20.8383C8.57522 20.9317 8.60036 21.0356 8.59943 21.1408Z M8.64815 26.0165L8.61641 28.5209C8.61641 28.9831 8.37225 29.0944 7.94985 28.9129L4.75619 27.553C4.22147 27.328 4.18973 26.694 5.00035 26.5174L7.9474 25.4479C8.37713 25.2955 8.64815 25.564 8.64815 26.0165Z" fill="#FF5500"/>
<path d="M18.6099 10.6152V8.41571H20.9074V10.6152H18.6099ZM18.7393 26.9191V13.5406H20.7512V26.9191H18.7393Z M20.9983 27.161H18.4981V13.2986H20.9983V27.161ZM18.9864 26.6771H20.51V13.7825H18.9864V26.6771ZM21.1546 10.8571H18.3662V8.17371H21.1521L21.1546 10.8571ZM18.8545 10.3732H20.6638V8.65764H18.8545V10.3732Z M36.2779 14.8859C36.5834 14.559 36.9296 14.272 37.3083 14.0318C37.7102 13.7822 38.1459 13.5907 38.6024 13.4631C39.1253 13.3189 39.6662 13.2488 40.209 13.255C41.7732 13.255 43.0006 13.7341 43.8909 14.6923C44.7813 15.6505 45.2257 16.966 45.2241 18.6389V26.919H43.2146V19.1034C43.2146 17.8129 42.9053 16.8168 42.2868 16.1151C41.6682 15.4134 40.8104 15.0642 39.7133 15.0674C39.2216 15.0649 38.734 15.1569 38.2776 15.3384C37.8284 15.5186 37.4237 15.7926 37.091 16.1417C36.735 16.5189 36.4593 16.9633 36.2804 17.4484C36.0721 18.0115 35.9703 18.6078 35.98 19.2075V26.919H33.9926V19.0526C33.9926 17.7944 33.6833 16.8152 33.0647 16.1151C32.4462 15.415 31.5981 15.0658 30.5206 15.0674C30.0073 15.0621 29.499 15.1678 29.0312 15.3771C28.577 15.5851 28.1719 15.8851 27.8421 16.2579C27.4955 16.6494 27.2256 17.1016 27.0461 17.5911C26.8489 18.1342 26.7514 18.7078 26.758 19.2849V26.919H24.7485V13.5406H26.758V15.7909C26.9846 15.4556 27.2291 15.1325 27.4905 14.823C28.0476 14.1794 28.7761 13.704 29.5927 13.451C30.0843 13.3046 30.5958 13.2344 31.109 13.2429C32.073 13.2052 33.0241 13.4731 33.8241 14.0076C34.5187 14.4941 35.076 15.1489 35.4429 15.9094C35.694 15.5473 35.9732 15.2051 36.2779 14.8859Z M45.4682 27.161H42.968V19.1035C42.968 17.8767 42.675 16.9257 42.1012 16.2748C41.5275 15.6239 40.7437 15.307 39.7109 15.307C39.2517 15.3006 38.7956 15.3828 38.368 15.5489C37.9506 15.7163 37.5743 15.9705 37.2644 16.2942C36.9327 16.6499 36.6747 17.0667 36.505 17.521C36.3086 18.0566 36.2126 18.6232 36.2218 19.193V27.1465H33.7484V19.0527C33.7484 17.8597 33.4579 16.9257 32.8816 16.2748C32.3054 15.6239 31.5339 15.307 30.5206 15.307C30.0427 15.3017 29.5693 15.4 29.1337 15.5949C28.7107 15.7889 28.3331 16.0683 28.0252 16.4152C27.6987 16.7848 27.4445 17.2115 27.2756 17.6734C27.0884 18.1893 26.9958 18.7343 27.0022 19.2825V27.1586H24.5044V13.2986H27.0022V15.0553C27.1047 14.9271 27.2097 14.8134 27.3172 14.6754C27.6036 14.3489 27.932 14.0609 28.2938 13.8189C28.676 13.5659 29.0929 13.3687 29.5317 13.2333C30.047 13.0792 30.5831 13.005 31.1212 13.0131C32.1361 12.9761 33.1366 13.2599 33.9779 13.8237C34.5923 14.255 35.106 14.812 35.4844 15.457C35.6749 15.2029 35.88 14.9585 36.0973 14.7311C36.4171 14.3881 36.7807 14.0879 37.1789 13.8382C37.5988 13.5747 38.0554 13.3733 38.534 13.2406C39.0791 13.0895 39.6431 13.0162 40.209 13.0228C41.84 13.0228 43.1389 13.5333 44.0692 14.5375C44.9995 15.5417 45.4658 16.9209 45.4658 18.651L45.4682 27.161ZM43.4588 26.6771H44.9799V18.6389C44.9799 17.0346 44.5551 15.7619 43.7127 14.8569C42.8703 13.9519 41.6984 13.497 40.2114 13.497C39.6918 13.4913 39.174 13.5581 38.6732 13.6955C38.2426 13.8173 37.8316 13.999 37.4524 14.235C37.0922 14.4633 36.7638 14.7375 36.4757 15.0505C36.1834 15.3645 35.9157 15.7002 35.6749 16.0547L35.4307 16.4103L35.2451 16.0256C34.8945 15.3027 34.3644 14.68 33.7045 14.2157C32.9457 13.71 32.0447 13.4559 31.131 13.4898C30.6435 13.481 30.1575 13.5471 29.6904 13.6858C28.9166 13.9255 28.2263 14.3757 27.698 14.9851C27.4367 15.2837 27.1922 15.5963 26.9656 15.9216L26.5187 16.5676V13.7826H24.9976V26.6771H26.5187V19.2849C26.5118 18.679 26.6144 18.0767 26.8215 17.5065C27.013 16.9899 27.2985 16.5126 27.6639 16.0982C28.0165 15.7005 28.4489 15.3799 28.9335 15.1569C29.4336 14.9333 29.9768 14.8201 30.5255 14.8255C31.673 14.8255 32.5911 15.2053 33.2552 15.9554C33.9193 16.7056 34.2319 17.7388 34.2319 19.0527V26.6771H35.7286V19.2075C35.7196 18.578 35.8271 17.9523 36.046 17.3613C36.2365 16.847 36.5287 16.3756 36.9054 15.9748C37.2627 15.6006 37.6975 15.3075 38.18 15.1158C38.6648 14.9217 39.1831 14.8231 39.706 14.8255C40.8707 14.8255 41.7985 15.2053 42.4626 15.9554C43.1267 16.7056 43.4393 17.7557 43.4393 19.101L43.4588 26.6771Z M61.6073 22.9217C61.2679 23.7538 60.7706 24.5136 60.1424 25.1599C59.5027 25.8079 58.739 26.3228 57.896 26.6746C57.0044 27.0497 56.0446 27.2392 55.076 27.2312C54.1159 27.2407 53.1645 27.0511 52.2827 26.6746C51.4525 26.3205 50.699 25.8112 50.0633 25.1744C49.4322 24.5396 48.9343 23.7871 48.5983 22.9604C48.2477 22.1062 48.0702 21.1919 48.0758 20.2697C48.0711 19.3429 48.2486 18.4241 48.5983 17.5645C48.9329 16.7279 49.4317 15.9653 50.0659 15.3211C50.7 14.6769 51.4568 14.1638 52.2925 13.8116C53.1885 13.4342 54.1537 13.2447 55.1272 13.255C56.0911 13.2465 57.0464 13.436 57.9327 13.8116C58.7681 14.1652 59.5267 14.6754 60.1668 15.3142C60.797 15.9488 61.2948 16.7004 61.6317 17.5258C61.9812 18.3804 62.1587 19.2944 62.1543 20.2165C62.1559 21.1454 61.97 22.0652 61.6073 22.9217ZM59.7029 18.2154C59.4614 17.5984 59.1025 17.0332 58.6456 16.5507C58.192 16.0782 57.6507 15.697 57.0512 15.4279C56.4274 15.15 55.7501 15.0097 55.0662 15.0166C54.3755 15.0085 53.6909 15.1446 53.0567 15.4158C52.4633 15.6702 51.9327 16.0491 51.5014 16.5265C51.0666 17.011 50.7263 17.5714 50.4979 18.1791C50.2499 18.8258 50.1257 19.5126 50.1317 20.2044C50.126 20.902 50.2545 21.5942 50.5101 22.2442C50.7469 22.8571 51.1018 23.4184 51.5551 23.8968C52.0035 24.3657 52.5402 24.743 53.1349 25.0075C53.7589 25.2847 54.4361 25.425 55.1199 25.4188C55.8106 25.4269 56.4952 25.2908 57.1294 25.0196C57.7233 24.7654 58.2572 24.3913 58.6969 23.921C59.1393 23.4448 59.485 22.8887 59.7151 22.2829C60.2075 20.9702 60.2031 19.5252 59.7029 18.2154Z M55.0662 27.4732C54.0727 27.4823 53.0881 27.2862 52.1753 26.8973C51.317 26.5285 50.5373 26.0013 49.8777 25.3438C49.227 24.6853 48.7128 23.9068 48.3639 23.0524C48.0025 22.1686 47.8192 21.2233 47.8243 20.2697C47.8201 19.3123 48.0034 18.3632 48.3639 17.475C48.71 16.6087 49.2262 15.8191 49.8826 15.1521C50.5389 14.485 51.3224 13.9537 52.1875 13.589C53.1139 13.1996 54.1113 13.0036 55.1175 13.0131C56.1149 13.0049 57.1032 13.201 58.0206 13.589C58.8836 13.9558 59.6676 14.4831 60.3304 15.1424C60.9813 15.8008 61.4956 16.5793 61.8442 17.4339C62.5711 19.2249 62.5667 21.2258 61.832 23.0137C61.476 23.8744 60.9581 24.6603 60.3059 25.3293C59.6429 25.9986 58.8529 26.5314 57.9815 26.8973C57.0595 27.284 56.0674 27.48 55.0662 27.4732ZM55.1199 13.497C54.18 13.4877 53.2482 13.6706 52.3828 14.0342C51.575 14.3743 50.8435 14.8705 50.2311 15.4936C49.6186 16.1167 49.1375 16.8544 48.8156 17.6637C48.4794 18.4945 48.3086 19.3819 48.3126 20.277C48.3077 21.1675 48.4785 22.0503 48.8156 22.8757C49.1387 23.6728 49.6184 24.3982 50.2269 25.0099C50.8413 25.6251 51.569 26.1179 52.3706 26.4617C53.2187 26.823 54.1333 27.006 55.0564 26.9989C55.9922 27.0056 56.9194 26.8228 57.7813 26.4617C58.5931 26.1246 59.3292 25.6311 59.947 25.0099C60.8778 24.0483 61.5086 22.8408 61.7637 21.5325C62.0188 20.2242 61.8874 18.8708 61.3851 17.6347C61.0616 16.8385 60.5828 16.1133 59.9763 15.5005C59.3577 14.8847 58.6259 14.3919 57.8204 14.0487C56.9679 13.6833 56.0487 13.4956 55.1199 13.497ZM55.1199 25.6608C54.4007 25.6667 53.6887 25.519 53.0323 25.2277C52.4032 24.9478 51.8363 24.547 51.3644 24.0486C50.8925 23.5502 50.5249 22.9641 50.283 22.3241C50.0168 21.6462 49.8826 20.9245 49.8875 20.1972C49.8816 19.4757 50.0108 18.7595 50.2684 18.0848C50.5108 17.4505 50.8674 16.8652 51.3207 16.3571C51.775 15.8556 52.333 15.457 52.9566 15.1884C53.6222 14.9027 54.341 14.7593 55.0662 14.7674C55.7854 14.7617 56.4973 14.9094 57.1538 15.2005C57.7808 15.4837 58.347 15.8837 58.8214 16.3789C59.3003 16.8837 59.6767 17.4752 59.9299 18.1211C60.4492 19.4881 60.4492 20.9957 59.9299 22.3628C59.6883 22.997 59.3261 23.5794 58.8629 24.0783C58.4003 24.5711 57.8401 24.964 57.2173 25.2325C56.5561 25.519 55.8416 25.6649 55.1199 25.6608ZM55.0662 15.2561C54.4093 15.2483 53.7581 15.3769 53.1544 15.6336C52.5959 15.8758 52.0963 16.2339 51.6894 16.6838C51.2757 17.1476 50.9506 17.6822 50.7299 18.2614C50.4946 18.8799 50.3762 19.5361 50.3807 20.1972C50.3768 20.8639 50.4994 21.5255 50.7421 22.1474C50.968 22.731 51.3054 23.2658 51.7358 23.7226C52.1637 24.1679 52.6744 24.527 53.2399 24.78C53.8326 25.0426 54.4755 25.1755 55.1248 25.1696C55.7818 25.1766 56.4331 25.0472 57.0366 24.7897C57.5989 24.5475 58.105 24.1934 58.5235 23.7493C58.9459 23.295 59.2773 22.7654 59.5002 22.1886C59.7355 21.57 59.8538 20.9138 59.8493 20.2528C59.8532 19.586 59.7306 18.9245 59.488 18.3025C59.2572 17.7145 58.9149 17.1757 58.4796 16.7152C58.0421 16.2645 57.5205 15.9021 56.9438 15.6481C56.3532 15.3868 55.713 15.2539 55.0662 15.2586V15.2561Z M74.3135 13.5406H76.4768L70.6169 27.0231H68.8418L62.9819 13.5406H65.2014L69.7428 24.6494L74.3135 13.5406Z M70.7659 27.265H68.6636L62.6084 13.2986H65.3626L69.7429 24.0009L74.15 13.2986H76.8529L70.7659 27.265ZM68.9908 26.7811H70.4558L76.1204 13.7825H74.4894L69.7551 25.2857L65.0476 13.7825H63.3629L68.9908 26.7811Z M79.927 22.8951C80.1884 23.4341 80.5524 23.918 80.9989 24.3203C81.4264 24.7028 81.9236 25.0009 82.4639 25.1986C83.007 25.3978 83.5817 25.4986 84.1608 25.4963C84.9962 25.5198 85.8248 25.3421 86.5756 24.9784C87.261 24.6242 87.8829 24.1607 88.4166 23.6065L89.6716 24.7195C89.0148 25.4623 88.2271 26.0805 87.3471 26.544C86.34 27.0318 85.2275 27.2678 84.1071 27.2312C83.2118 27.236 82.3245 27.0641 81.497 26.7255C80.6923 26.3977 79.9618 25.914 79.3484 25.3027C78.7198 24.6667 78.2222 23.9156 77.8834 23.0911C77.5141 22.1867 77.3298 21.2186 77.3413 20.2431C77.3368 19.3116 77.5022 18.3869 77.8297 17.5137C78.1314 16.6937 78.588 15.9382 79.175 15.2876C79.7491 14.6582 80.4471 14.1518 81.226 13.7995C82.0547 13.4364 82.9508 13.2489 83.8568 13.2489C84.7629 13.2489 85.659 13.4364 86.4877 13.7995C87.2518 14.1567 87.929 14.6734 88.4727 15.3142C89.0238 15.9783 89.4386 16.7427 89.6936 17.5645C89.977 18.461 90.1178 19.3957 90.1111 20.3351V20.6182C90.1109 20.7315 90.1027 20.8447 90.0867 20.9569H79.4069C79.4597 21.629 79.6359 22.2858 79.927 22.8951ZM88.0503 19.493C88 18.901 87.8728 18.3179 87.6719 17.7581C87.4868 17.228 87.2055 16.736 86.8417 16.3063C86.465 15.8643 85.993 15.5117 85.4606 15.2742C84.9282 15.0368 84.3489 14.9206 83.7653 14.9343C83.2005 14.9301 82.6418 15.0499 82.1294 15.2852C81.6289 15.5194 81.1794 15.8482 80.806 16.253C80.4143 16.6747 80.0988 17.1601 79.8733 17.6879C79.624 18.2646 79.4658 18.8759 79.4045 19.5003L88.0503 19.493Z M84.1045 27.4731C83.1776 27.4773 82.259 27.2997 81.4017 26.9505C80.5634 26.6104 79.8022 26.1077 79.1627 25.4721C78.5124 24.8141 77.9982 24.0365 77.6489 23.183C77.2682 22.2493 77.0774 21.2502 77.0873 20.2431C77.0778 19.2836 77.2432 18.3302 77.5756 17.429C77.8871 16.5802 78.3595 15.7983 78.9674 15.1255C79.5637 14.472 80.2881 13.9459 81.0965 13.5793C81.9587 13.2034 82.8907 13.0106 83.8326 13.0131C84.7746 13.0156 85.7055 13.2134 86.5657 13.5938C87.3609 13.9661 88.0655 14.5042 88.6313 15.1714C89.2055 15.8592 89.6385 16.6516 89.9059 17.504C90.1949 18.4243 90.3391 19.3833 90.3332 20.3472V20.6303C90.3333 20.7541 90.3244 20.8779 90.3063 21.0005L90.277 21.211H79.6559C79.7257 21.7584 79.8839 22.2911 80.1247 22.7886C80.3724 23.2993 80.7173 23.7577 81.1404 24.1388C81.5435 24.5014 82.0125 24.7846 82.5224 24.9736C83.0393 25.1613 83.5858 25.2564 84.1363 25.2543C84.9318 25.2777 85.7213 25.1117 86.4387 24.7703C87.0995 24.4262 87.6997 23.9784 88.2163 23.4444L88.3798 23.2774L89.9913 24.705L89.8302 24.8865C89.1521 25.6489 88.3417 26.2849 87.4374 26.7642C86.4006 27.2641 85.257 27.5074 84.1045 27.4731ZM83.8189 13.497C82.9586 13.4887 82.1069 13.6671 81.3235 14.0197C80.5745 14.3582 79.9032 14.8449 79.3507 15.4497C78.7858 16.0786 78.3459 16.8076 78.0542 17.5984C77.739 18.4449 77.5802 19.3408 77.5854 20.2431C77.5742 21.1864 77.7526 22.1225 78.1103 22.9967C78.4357 23.7927 78.9142 24.5184 79.5192 25.1333C80.1101 25.7212 80.8131 26.1867 81.5872 26.5028C82.386 26.8267 83.2415 26.9911 84.1045 26.9868C85.1803 27.0246 86.2492 26.8037 87.2201 26.3431C88.0015 25.9305 88.7085 25.3925 89.3126 24.751L88.414 23.9525C87.8995 24.4522 87.3137 24.8745 86.6756 25.2059C85.8896 25.5859 85.0228 25.7726 84.1485 25.7503C83.5403 25.7528 82.9366 25.6471 82.3661 25.4382C81.798 25.2287 81.2752 24.9142 80.8254 24.5114C80.3563 24.0882 79.9733 23.5798 79.6974 23.0137C79.3937 22.3819 79.2092 21.7004 79.1529 21.0029L79.1261 20.7391H89.8546C89.8546 20.7053 89.8546 20.6738 89.8546 20.6424V20.3593C89.8604 19.4454 89.7237 18.5362 89.4493 17.6637C89.2019 16.8686 88.8005 16.1289 88.2675 15.486C87.7454 14.873 87.0968 14.378 86.3655 14.0342C85.5676 13.6695 84.6975 13.4859 83.8189 13.497ZM88.3139 19.735H79.1334L79.1627 19.4664C79.2273 18.8178 79.392 18.1829 79.651 17.5839C79.8885 17.0312 80.2188 16.5223 80.6277 16.0788C81.024 15.6556 81.4991 15.3122 82.0267 15.0674C82.5714 14.8178 83.1651 14.6905 83.7652 14.6948C84.384 14.6788 84.9984 14.801 85.5631 15.0523C86.1278 15.3036 86.6282 15.6776 87.0272 16.1466C87.4103 16.5973 87.7066 17.1141 87.9013 17.671C88.1088 18.2495 88.2401 18.8521 88.292 19.464L88.3139 19.735ZM79.6828 19.251H87.7792C87.7181 18.7702 87.6052 18.2973 87.4423 17.8404C87.2666 17.3387 87.0002 16.873 86.6561 16.466C86.3181 16.0743 85.9026 15.7556 85.4352 15.5295C84.9132 15.2867 84.3417 15.1667 83.7652 15.1787C83.2368 15.1748 82.7142 15.2864 82.2343 15.5053C81.7633 15.7243 81.3396 16.0316 80.9866 16.4103C80.6132 16.8124 80.3118 17.2748 80.0954 17.7774C79.892 18.2482 79.7532 18.7438 79.6828 19.251Z M93.0117 10.6152V8.41571H95.3093V10.6152H93.0117ZM93.1411 26.9191V13.5406H95.153V26.9191H93.1411Z M95.3967 27.161H92.8965V13.2986H95.3967V27.161ZM93.3848 26.6771H94.9084V13.7825H93.3848V26.6771ZM95.553 10.8571H92.7671V8.17371H95.553V10.8571ZM93.2554 10.3732H95.0647V8.65764H93.2554V10.3732Z M108.039 24.8623C107.791 25.3462 107.445 25.7739 107.021 26.1182C106.572 26.4751 106.057 26.7429 105.505 26.907C104.892 27.0924 104.254 27.1838 103.613 27.178C102.605 27.1723 101.606 26.993 100.661 26.6481C99.7087 26.3157 98.8179 25.831 98.0239 25.2132L99.0421 23.788C99.7361 24.3207 100.506 24.7481 101.327 25.0559C102.091 25.3451 102.901 25.4943 103.718 25.4963C104.432 25.5269 105.137 25.3274 105.727 24.9277C105.978 24.7537 106.181 24.5205 106.318 24.2493C106.454 23.9781 106.521 23.6773 106.511 23.3742V23.3234C106.518 23.0165 106.422 22.7159 106.238 22.4693C106.034 22.2108 105.781 21.9953 105.493 21.8353C105.149 21.6385 104.786 21.4764 104.409 21.3514C103.999 21.2142 103.576 21.0852 103.142 20.9642C102.619 20.8069 102.094 20.64 101.562 20.4585C101.057 20.2893 100.575 20.0593 100.126 19.7737C99.7079 19.5056 99.3517 19.1526 99.0811 18.7381C98.7971 18.2701 98.6563 17.7304 98.6758 17.1846V17.1484C98.67 16.608 98.7859 16.0731 99.0152 15.5828C99.239 15.1144 99.5651 14.7011 99.9699 14.373C100.403 14.0232 100.901 13.7595 101.435 13.5962C102.03 13.4106 102.652 13.3191 103.276 13.3252C104.136 13.329 104.989 13.4637 105.808 13.7245C106.628 13.9773 107.41 14.3387 108.132 14.7988L107.219 16.3015C106.602 15.9097 105.939 15.5921 105.246 15.3554C104.596 15.1292 103.912 15.0115 103.222 15.0069C102.542 14.9707 101.869 15.1672 101.318 15.5635C101.097 15.7218 100.918 15.93 100.796 16.1708C100.673 16.4115 100.61 16.6778 100.612 16.9475V16.9983C100.606 17.2956 100.709 17.5849 100.9 17.8138C101.113 18.0655 101.375 18.2727 101.669 18.4235C102.025 18.6099 102.397 18.7653 102.78 18.8881C103.197 19.0252 103.632 19.1631 104.084 19.3019C104.607 19.4567 105.124 19.631 105.639 19.8197C106.135 20.0004 106.604 20.2444 107.036 20.5456C107.442 20.8262 107.784 21.1871 108.042 21.6054C108.307 22.0702 108.438 22.5985 108.42 23.1322V23.1855C108.428 23.7663 108.298 24.3408 108.039 24.8623Z M103.613 27.42C102.577 27.4142 101.55 27.2299 100.578 26.8755C99.6012 26.5334 98.6875 26.0357 97.8726 25.4019L97.6919 25.2592L98.9884 23.4444L99.1911 23.5968C99.8665 24.1141 100.615 24.53 101.413 24.8309C102.15 25.1074 102.93 25.2508 103.718 25.2543C104.38 25.2841 105.035 25.1007 105.583 24.7317C105.803 24.5804 105.981 24.3768 106.1 24.1396C106.22 23.9024 106.277 23.6392 106.267 23.3742V23.3234C106.274 23.0689 106.195 22.8193 106.042 22.6144C105.859 22.382 105.631 22.1879 105.371 22.0434C105.04 21.8576 104.692 21.7044 104.331 21.5861C103.93 21.4506 103.508 21.3199 103.076 21.2014C102.548 21.0441 102.014 20.8723 101.484 20.6908C100.959 20.5157 100.458 20.2767 99.9919 19.9794C99.5459 19.6923 99.1658 19.3156 98.8761 18.8736C98.5653 18.3637 98.4109 17.7752 98.4317 17.1798V17.1484C98.426 16.5719 98.5503 16.0015 98.7955 15.4788C99.0337 14.9764 99.3815 14.5326 99.8137 14.1794C100.27 13.8099 100.794 13.5313 101.357 13.3591C101.977 13.1661 102.624 13.0706 103.273 13.076C104.158 13.0803 105.037 13.219 105.879 13.4874C106.72 13.747 107.522 14.1173 108.264 14.5883L108.462 14.7166L107.295 16.6306L107.085 16.4975C106.485 16.116 105.84 15.8073 105.166 15.578C104.538 15.36 103.878 15.2464 103.212 15.2417C102.587 15.2075 101.969 15.3849 101.459 15.7449C101.268 15.8807 101.112 16.0602 101.005 16.2683C100.899 16.4764 100.844 16.7069 100.846 16.9403V16.9911C100.844 17.234 100.931 17.4695 101.091 17.6541C101.285 17.8806 101.522 18.0672 101.789 18.2034C102.132 18.3826 102.49 18.5324 102.858 18.651C103.269 18.7865 103.706 18.9268 104.16 19.0648C104.68 19.2196 105.207 19.3938 105.727 19.585C106.246 19.7735 106.739 20.0272 107.192 20.3399C107.624 20.6405 107.989 21.026 108.264 21.4724C108.553 21.9749 108.697 22.5468 108.679 23.125V23.1782C108.69 23.8032 108.551 24.4218 108.274 24.9833C108.012 25.4974 107.643 25.9509 107.192 26.3142C106.718 26.6901 106.176 26.9734 105.595 27.149C104.952 27.3386 104.284 27.43 103.613 27.42ZM98.3585 25.1624C99.0859 25.6973 99.8899 26.1214 100.744 26.4206C101.663 26.7558 102.634 26.9302 103.613 26.936C104.229 26.9409 104.842 26.8536 105.432 26.6771C105.953 26.5208 106.44 26.267 106.865 25.9294C107.263 25.608 107.59 25.2074 107.822 24.7535C108.063 24.2599 108.184 23.7169 108.174 23.1686V23.1153C108.19 22.626 108.071 22.1415 107.83 21.7143C107.589 21.3238 107.27 20.9869 106.892 20.7247C106.477 20.4372 106.026 20.2038 105.552 20.0302C105.041 19.8415 104.524 19.6697 104.013 19.5172C103.554 19.3769 103.112 19.239 102.7 19.1011C102.303 18.9718 101.919 18.81 101.55 18.6171C101.227 18.4512 100.941 18.2233 100.707 17.9469C100.481 17.6746 100.36 17.3316 100.365 16.979V16.9282C100.363 16.6223 100.434 16.3204 100.573 16.047C100.711 15.7736 100.913 15.5366 101.161 15.3554C101.757 14.9252 102.484 14.71 103.22 14.7456C103.937 14.7503 104.648 14.873 105.324 15.1086C105.956 15.3234 106.564 15.604 107.136 15.9458L107.798 14.8593C107.149 14.4711 106.456 14.1616 105.732 13.9374C104.938 13.6836 104.108 13.5522 103.273 13.5479C102.674 13.5429 102.078 13.6302 101.506 13.8068C101.004 13.9601 100.536 14.2064 100.126 14.5327C99.749 14.8403 99.4454 15.2271 99.2374 15.6651C99.0246 16.1198 98.9161 16.6157 98.92 17.1169V17.1677C98.9012 17.6663 99.0284 18.1596 99.2863 18.5881C99.5395 18.9752 99.8723 19.305 100.263 19.556C100.694 19.8322 101.158 20.0533 101.645 20.2141C102.17 20.3932 102.697 20.5626 103.215 20.7174C103.652 20.8384 104.082 20.9594 104.489 21.107C104.881 21.2371 105.258 21.404 105.617 21.6054C105.934 21.7833 106.212 22.0208 106.435 22.3047C106.651 22.5933 106.765 22.9448 106.758 23.3041V23.3549C106.768 23.6962 106.693 24.0348 106.538 24.3401C106.384 24.6455 106.156 24.9081 105.874 25.1043C105.241 25.5336 104.486 25.7491 103.72 25.7189C102.874 25.7158 102.035 25.5617 101.244 25.264C100.481 24.9766 99.7602 24.5893 99.1007 24.1122L98.3585 25.1624Z M120.756 26.4956C119.773 27.0118 118.669 27.2622 117.557 27.2215C116.61 27.2301 115.672 27.0404 114.803 26.665C113.141 25.9551 111.831 24.6211 111.16 22.9556C110.81 22.1013 110.632 21.1871 110.638 20.2649C110.633 19.3381 110.811 18.4193 111.16 17.5597C111.493 16.7282 111.985 15.9682 112.608 15.3215C113.234 14.6788 113.98 14.1641 114.806 13.8067C115.674 13.4313 116.613 13.2417 117.56 13.2502C118.148 13.2443 118.736 13.3052 119.31 13.4317C119.807 13.544 120.289 13.7137 120.746 13.9374C121.173 14.1479 121.576 14.4034 121.947 14.6996C122.307 14.9881 122.647 15.2992 122.966 15.6312L121.635 17.0298C121.107 16.4876 120.515 16.0099 119.872 15.607C119.166 15.1917 118.354 14.9852 117.533 15.0117C116.877 15.0071 116.227 15.1433 115.629 15.411C115.043 15.6716 114.518 16.0498 114.088 16.5216C113.645 17.003 113.299 17.564 113.07 18.1743C112.822 18.821 112.697 19.5078 112.703 20.1996C112.698 20.8971 112.826 21.5894 113.082 22.2394C113.32 22.8551 113.675 23.4201 114.127 23.9041C114.577 24.3879 115.124 24.7725 115.734 25.0326C116.343 25.2928 117.001 25.4227 117.665 25.414C118.472 25.4302 119.269 25.2339 119.975 24.8454C120.648 24.4636 121.261 23.9841 121.791 23.4226L123.071 24.6131C122.409 25.3623 121.627 25.9983 120.756 26.4956Z M117.557 27.4732C116.576 27.4818 115.603 27.2847 114.703 26.8949C112.985 26.1555 111.631 24.7749 110.933 23.0524C110.572 22.1687 110.389 21.2233 110.394 20.2698C110.389 19.3124 110.573 18.3633 110.933 17.475C111.279 16.6151 111.788 15.829 112.432 15.1594C113.079 14.495 113.85 13.9623 114.703 13.5914C115.603 13.2016 116.576 13.0045 117.557 13.0131C118.164 13.0073 118.77 13.0706 119.362 13.2019C119.878 13.3177 120.379 13.4931 120.854 13.7245C121.296 13.9444 121.713 14.2105 122.099 14.5182C122.466 14.813 122.815 15.1306 123.141 15.4691L123.3 15.6361L121.647 17.3903L121.469 17.2064C120.957 16.6789 120.383 16.2135 119.76 15.82C119.095 15.4325 118.333 15.2395 117.562 15.2634C116.94 15.259 116.325 15.3878 115.758 15.6409C115.202 15.8885 114.703 16.2468 114.293 16.6935C113.871 17.1534 113.54 17.6877 113.316 18.2687C113.081 18.8872 112.963 19.5434 112.967 20.2044C112.963 20.8712 113.086 21.5328 113.329 22.1547C113.555 22.7427 113.893 23.2823 114.325 23.7445C114.744 24.1909 115.25 24.5497 115.812 24.7994C116.402 25.0553 117.04 25.184 117.684 25.1769C118.452 25.1923 119.21 25.007 119.882 24.6397C120.533 24.2685 121.126 23.8037 121.64 23.2605L121.806 23.0839L123.437 24.601L123.281 24.7777C122.601 25.547 121.8 26.2009 120.907 26.7134C119.878 27.2544 118.722 27.5165 117.557 27.4732ZM117.557 13.4971C116.644 13.4896 115.739 13.6726 114.901 14.0342C114.107 14.3769 113.387 14.8701 112.784 15.486C112.185 16.1149 111.712 16.8516 111.392 17.6565C111.056 18.4873 110.885 19.3747 110.889 20.2698C110.884 21.1602 111.055 22.0431 111.392 22.8685C111.715 23.6635 112.19 24.389 112.791 25.0051C113.397 25.6186 114.116 26.1114 114.908 26.4569C115.746 26.8166 116.651 26.9988 117.565 26.9917C118.635 27.0274 119.697 26.7846 120.644 26.2876C121.421 25.8438 122.126 25.2858 122.734 24.6325L121.803 23.7687C121.294 24.2734 120.719 24.7087 120.094 25.0632C119.348 25.4733 118.506 25.6804 117.653 25.6633C116.955 25.6716 116.264 25.5346 115.623 25.2612C114.983 24.9877 114.407 24.5839 113.934 24.076C113.463 23.5684 113.093 22.9774 112.843 22.3338C112.576 21.6559 112.442 20.9342 112.447 20.2069C112.441 19.4855 112.57 18.7692 112.828 18.0945C113.072 17.457 113.434 16.8702 113.895 16.3644C114.349 15.8709 114.9 15.4741 115.514 15.1981C116.144 14.9162 116.829 14.7726 117.521 14.7771C118.388 14.7498 119.244 14.969 119.989 15.4086C120.577 15.7764 121.123 16.2056 121.618 16.6886L122.616 15.6409C122.352 15.3782 122.073 15.1294 121.781 14.8956C121.041 14.3007 120.172 13.8827 119.242 13.6737C118.689 13.5534 118.124 13.4941 117.557 13.4971Z M135.289 13.5406H137.274V26.9191H135.289V24.5913C134.83 25.3219 134.226 25.9518 133.513 26.4424C132.783 26.9505 131.834 27.2046 130.667 27.2046C129.921 27.2216 129.179 27.0934 128.484 26.8271C127.869 26.5818 127.317 26.206 126.865 25.7262C126.411 25.2371 126.065 24.6605 125.847 24.0324C125.605 23.3317 125.486 22.5951 125.495 21.8546V13.5406H127.507V21.3562C127.507 22.5983 127.833 23.5815 128.484 24.3058C129.135 25.0301 130.058 25.3922 131.252 25.3922C131.802 25.3981 132.347 25.2969 132.857 25.0946C133.341 24.9061 133.778 24.6145 134.136 24.2405C134.503 23.8549 134.791 23.4031 134.986 22.9096C135.198 22.365 135.305 21.7853 135.298 21.2013L135.289 13.5406Z M130.666 27.4465C129.889 27.4597 129.117 27.3215 128.393 27.04C127.744 26.7832 127.161 26.3874 126.684 25.881C126.208 25.3677 125.844 24.7621 125.615 24.1025C125.363 23.3771 125.239 22.6143 125.249 21.8474V13.2986H127.751V21.3562C127.751 22.5321 128.056 23.471 128.657 24.1461C129.258 24.8212 130.102 25.1502 131.243 25.1502C131.761 25.154 132.274 25.0596 132.757 24.872C133.208 24.6943 133.615 24.4219 133.95 24.0735C134.296 23.7105 134.567 23.2849 134.749 22.8201C134.951 22.3043 135.052 21.7547 135.044 21.2013V13.2986H137.518V27.161H135.044V25.3511C134.645 25.844 134.176 26.2775 133.653 26.6383C132.879 27.1755 131.878 27.4465 130.666 27.4465ZM125.742 13.7825V21.8474C125.733 22.559 125.847 23.2668 126.079 23.9404C126.29 24.538 126.622 25.0865 127.055 25.5519C127.484 26.0055 128.007 26.3607 128.589 26.5924C129.253 26.8498 129.963 26.9755 130.676 26.9626C131.787 26.9626 132.695 26.7206 133.384 26.2367C134.07 25.7647 134.652 25.1586 135.093 24.4558L135.545 23.7299V26.6674H137.029V13.7825H135.533V21.2013C135.539 21.8159 135.428 22.4262 135.203 22.9991C134.996 23.5207 134.691 23.9986 134.305 24.4074C133.921 24.8051 133.455 25.1162 132.94 25.3196C132.396 25.534 131.815 25.6408 131.231 25.6342C129.961 25.6342 128.967 25.2422 128.279 24.4655C127.59 23.6887 127.263 22.6531 127.263 21.3562V13.7825H125.742Z M143.133 26.9191H141.121V13.5406H143.133V17.0346C143.373 16.4903 143.679 15.9775 144.046 15.5078C144.404 15.0469 144.826 14.6394 145.301 14.298C145.769 13.9619 146.29 13.7043 146.842 13.5358C147.425 13.3572 148.034 13.2754 148.644 13.2938V15.4546H148.487C147.776 15.4512 147.071 15.5835 146.41 15.8441C145.759 16.1009 145.176 16.4986 144.701 17.008C144.187 17.5683 143.796 18.2272 143.551 18.9438C143.257 19.8004 143.116 20.701 143.133 21.6054V26.9191Z M143.378 27.161H140.868V13.2986H143.378V16.045C143.523 15.8073 143.682 15.5779 143.854 15.3578C144.227 14.8819 144.666 14.4608 145.158 14.1068C145.648 13.7572 146.192 13.4876 146.769 13.3083C147.378 13.1262 148.013 13.0445 148.649 13.0663H148.893V15.6965H148.493C147.812 15.6936 147.138 15.8201 146.505 16.0692C145.889 16.3132 145.335 16.6901 144.884 17.1726C144.395 17.7073 144.021 18.3356 143.785 19.0188C143.503 19.846 143.365 20.7151 143.378 21.5885V27.161ZM141.366 26.6771H142.889V21.5957C142.875 20.6665 143.021 19.7417 143.322 18.8615C143.58 18.1171 143.988 17.4329 144.523 16.8507C145.022 16.315 145.636 15.8967 146.32 15.6264C146.982 15.3657 147.688 15.2287 148.4 15.2223V13.5551C147.896 13.559 147.396 13.634 146.913 13.7777C146.389 13.9408 145.894 14.1858 145.448 14.5036C144.994 14.8306 144.588 15.2201 144.244 15.6602C143.89 16.1139 143.594 16.6097 143.363 17.1363L142.889 18.1912V13.7826H141.366V26.6771Z M151.062 10.6152V8.41571H153.362V10.6152H151.062ZM151.193 26.9191V13.5406H153.203V26.9191H151.193Z M153.447 27.161H150.946V13.2986H153.444L153.447 27.161ZM151.437 26.6771H152.958V13.7825H151.435L151.437 26.6771ZM153.605 10.8571H150.817V8.17371H153.605V10.8571ZM151.305 10.3732H153.117V8.65764H151.305V10.3732Z M159.915 23.1153C159.915 23.9453 160.122 24.5212 160.542 24.8502C161.018 25.1929 161.598 25.3637 162.186 25.3342C162.514 25.3363 162.842 25.3014 163.162 25.2301C163.501 25.1485 163.829 25.0275 164.139 24.8696V26.5852C163.79 26.7763 163.416 26.9203 163.028 27.0134C162.596 27.1127 162.153 27.1606 161.71 27.1562C161.197 27.1597 160.688 27.0896 160.196 26.9481C159.744 26.8222 159.326 26.5964 158.975 26.2875C158.619 25.9634 158.347 25.5604 158.179 25.1116C157.974 24.5562 157.876 23.9677 157.891 23.3766V15.2997H156.011V13.5406H157.891V9.50214H159.903V13.5406H164.185V15.2997H159.915V23.1153Z M161.717 27.3957C161.181 27.3994 160.647 27.326 160.132 27.1779C159.648 27.0402 159.201 26.7972 158.824 26.4666C158.441 26.1156 158.146 25.6805 157.964 25.1962C157.748 24.6132 157.645 23.9951 157.659 23.3742V15.5417H155.779V13.2986H157.659V9.26013H160.159V13.2986H164.442V15.5417H160.159V23.1153C160.159 23.863 160.34 24.3832 160.694 24.659C161.126 24.9703 161.652 25.1257 162.186 25.0994C162.497 25.1008 162.807 25.0683 163.111 25.0026C163.432 24.9246 163.743 24.8092 164.036 24.659L164.39 24.4848V26.7279L164.263 26.7956C163.896 26.9965 163.502 27.1478 163.094 27.2457C162.643 27.3496 162.18 27.4 161.717 27.3957ZM156.267 15.0553H158.147V23.3718C158.134 23.9321 158.226 24.49 158.418 25.0172C158.573 25.4312 158.824 25.8034 159.151 26.1036C159.474 26.3867 159.857 26.5943 160.271 26.7109C160.741 26.8453 161.228 26.9122 161.717 26.9094C162.141 26.9136 162.564 26.8681 162.977 26.7739C163.297 26.6969 163.608 26.5832 163.902 26.4351V25.2495C163.682 25.3429 163.454 25.4174 163.221 25.4721C162.881 25.5466 162.534 25.5831 162.186 25.581C161.542 25.6082 160.909 25.4161 160.391 25.0365C159.903 24.6639 159.671 24.0154 159.671 23.1008V15.0432H163.953V13.768H159.671V9.74407H158.147V13.7825H156.267V15.0553Z M167.123 10.6152V8.41571H169.42V10.6152H167.123ZM167.252 26.9191V13.5406H169.259V26.9191H167.252Z M169.503 27.161H167.008V13.2986H169.503V27.161ZM167.491 26.6771H169.015V13.7825H167.491V26.6771ZM169.664 10.8571H166.878V8.17371H169.664V10.8571ZM167.367 10.3732H169.176V8.65764H167.367V10.3732Z M186.35 23.1686C186.014 23.981 185.522 24.7206 184.9 25.3463C184.31 25.9338 183.609 26.4001 182.837 26.7183C182.081 27.036 181.268 27.2005 180.446 27.2022C179.863 27.2049 179.282 27.1234 178.723 26.9602C178.228 26.8175 177.755 26.61 177.316 26.3432C176.902 26.088 176.521 25.7842 176.181 25.4382C175.849 25.1026 175.548 24.7391 175.28 24.3518V26.9118H173.268V8.02856H175.28V16.2313C175.561 15.8308 175.87 15.4507 176.205 15.0941C176.544 14.7332 176.926 14.4154 177.343 14.148C177.778 13.8732 178.248 13.656 178.74 13.5019C179.293 13.3332 179.87 13.2515 180.449 13.2599C182.11 13.2714 183.702 13.9241 184.885 15.0795C185.514 15.7026 186.012 16.4427 186.35 17.2573C187.079 19.1581 187.079 21.258 186.35 23.1589V23.1686ZM184.448 18.1163C184.217 17.5067 183.868 16.9478 183.42 16.4709C182.994 16.0221 182.477 15.6668 181.904 15.428C181.326 15.1873 180.705 15.0647 180.078 15.0674C179.453 15.0665 178.834 15.1934 178.261 15.4401C177.679 15.6888 177.148 16.0424 176.696 16.483C176.226 16.9495 175.856 17.5049 175.607 18.1163C175.332 18.7858 175.195 19.5033 175.204 20.2262C175.195 20.9538 175.332 21.6759 175.607 22.3507C175.857 22.9643 176.231 23.5209 176.706 23.9864C177.157 24.4279 177.688 24.7816 178.271 25.0293C178.844 25.276 179.463 25.4029 180.088 25.4019C180.718 25.4051 181.343 25.2876 181.929 25.0559C182.5 24.8319 183.016 24.4895 183.442 24.0518C183.888 23.5838 184.235 23.0316 184.46 22.4282C184.722 21.7319 184.85 20.9933 184.839 20.2504C184.845 19.521 184.713 18.797 184.448 18.1163Z M180.439 27.4466C179.833 27.4518 179.23 27.3703 178.647 27.2046C178.132 27.0532 177.639 26.8352 177.182 26.5561C176.751 26.2906 176.355 25.9746 176 25.6148C175.832 25.4406 175.671 25.264 175.512 25.0825V27.161H173.014V7.78656H175.514V15.5054C175.673 15.3094 175.842 15.1158 176.017 14.9295C176.369 14.5544 176.766 14.2237 177.199 13.9447C177.656 13.6583 178.148 13.4322 178.664 13.272C179.242 13.0942 179.844 13.0068 180.449 13.0131C181.292 13.0153 182.126 13.1797 182.905 13.497C183.711 13.8217 184.443 14.3012 185.061 14.9077C185.713 15.5553 186.229 16.3253 186.577 17.1725C187.333 19.1329 187.333 21.3002 186.577 23.2605C186.23 24.1049 185.72 24.8742 185.076 25.5253C184.462 26.1349 183.734 26.6191 182.932 26.9505C182.143 27.2781 181.295 27.4467 180.439 27.4466ZM175.026 23.575L175.47 24.2235C175.731 24.5992 176.023 24.9521 176.345 25.2785C176.672 25.6102 177.038 25.9019 177.436 26.1472C177.857 26.4046 178.311 26.6048 178.786 26.7424C179.323 26.8954 179.88 26.9704 180.439 26.965C181.228 26.9635 182.009 26.8073 182.737 26.5053C183.479 26.199 184.152 25.7509 184.719 25.1866C185.319 24.5799 185.793 23.8632 186.116 23.0766C186.822 21.2366 186.822 19.2037 186.116 17.3637C185.793 16.5749 185.314 15.8582 184.707 15.2561C183.571 14.1406 182.039 13.5101 180.439 13.4995C179.885 13.4959 179.334 13.5775 178.806 13.7414C177.87 14.0275 177.027 14.5543 176.364 15.2682C176.036 15.6164 175.733 15.9876 175.458 16.3789L175.014 17.0128V8.2705H173.49V26.6771H175.014L175.026 23.575ZM180.075 25.6366C179.418 25.6375 178.767 25.504 178.164 25.2446C177.553 24.9852 176.996 24.6151 176.523 24.1534C176.025 23.665 175.633 23.0813 175.37 22.4378C175.083 21.7331 174.939 20.9789 174.948 20.2189C174.939 19.4636 175.082 18.714 175.37 18.0146C175.636 17.3793 176.028 16.8034 176.523 16.3208C176.997 15.8592 177.553 15.4884 178.164 15.2271C178.77 14.9732 179.422 14.8423 180.08 14.8423C180.739 14.8423 181.39 14.9732 181.997 15.2271C182.6 15.4794 183.144 15.8535 183.594 16.3257C184.063 16.8219 184.43 17.4037 184.675 18.0388C184.947 18.7496 185.081 19.5048 185.071 20.2649C185.082 21.0376 184.948 21.8057 184.675 22.5297C184.437 23.1595 184.073 23.7355 183.606 24.2235C183.155 24.6862 182.61 25.0484 182.007 25.2858C181.391 25.523 180.736 25.6413 180.075 25.6342V25.6366ZM180.075 15.3118C179.487 15.313 178.906 15.4332 178.366 15.6651C177.811 15.9022 177.305 16.2394 176.874 16.6596C176.425 17.0988 176.07 17.624 175.832 18.2033C175.568 18.8428 175.437 19.5282 175.446 20.2189C175.438 20.9151 175.569 21.6059 175.832 22.2515C176.069 22.8344 176.423 23.3637 176.872 23.8073C177.304 24.2271 177.81 24.5636 178.366 24.7994C179.473 25.2608 180.72 25.2695 181.833 24.8236C182.373 24.612 182.861 24.2886 183.264 23.8751C183.691 23.4318 184.023 22.9075 184.241 22.3337C184.49 21.6657 184.613 20.9577 184.602 20.2456C184.612 19.546 184.489 18.8509 184.241 18.1961C184.019 17.6199 183.688 17.0916 183.264 16.6402C182.862 16.2162 182.374 15.8799 181.833 15.653C181.277 15.4211 180.679 15.3042 180.075 15.3094V15.3118Z M192.623 15.3917C191.964 15.5748 191.322 15.8128 190.704 16.103L190.103 14.4722C190.833 14.1326 191.593 13.8597 192.374 13.6567C193.236 13.4471 194.123 13.3471 195.011 13.3591C196.857 13.3591 198.276 13.8124 199.269 14.719C200.262 15.6256 200.758 16.9669 200.756 18.7429V26.9191H198.825V24.8914C198.302 25.5409 197.659 26.0855 196.93 26.4956C196.139 26.9634 195.143 27.1965 193.941 27.1949C193.318 27.1952 192.699 27.1081 192.1 26.936C191.517 26.7723 190.968 26.505 190.481 26.1472C190.007 25.7997 189.614 25.3538 189.331 24.8406C189.032 24.2739 188.884 23.6409 188.902 23.0016C188.889 22.3525 189.032 21.7097 189.319 21.1263C189.596 20.5838 190.004 20.1175 190.506 19.7689C191.061 19.3875 191.68 19.1065 192.335 18.9389C193.098 18.7431 193.883 18.6479 194.671 18.6558C195.432 18.6476 196.192 18.6994 196.945 18.8107C197.579 18.9129 198.206 19.051 198.825 19.2245V18.7575C198.825 17.5508 198.472 16.641 197.767 16.028C197.063 15.4151 196.074 15.1086 194.803 15.1086C194.067 15.1037 193.333 15.199 192.623 15.3917ZM191.978 20.8892C191.653 21.1214 191.39 21.4294 191.214 21.786C191.037 22.1426 190.951 22.5368 190.965 22.9338C190.956 23.3304 191.049 23.7226 191.236 24.0735C191.418 24.4018 191.668 24.6887 191.968 24.9156C192.294 25.1544 192.661 25.3338 193.05 25.4455C193.468 25.5678 193.901 25.629 194.337 25.627C194.934 25.6309 195.528 25.5386 196.095 25.3535C196.613 25.1888 197.097 24.9349 197.526 24.6034C197.928 24.2966 198.261 23.9091 198.502 23.4662C198.739 23.0142 198.858 22.5113 198.851 22.0023V20.7101C198.348 20.573 197.772 20.4432 197.123 20.3206C196.388 20.1926 195.642 20.1318 194.896 20.1391C193.628 20.1391 192.655 20.3891 191.978 20.8892Z M193.941 27.4466C193.295 27.4471 192.652 27.3566 192.032 27.178C191.42 27.0058 190.845 26.7254 190.335 26.3504C189.832 25.9821 189.415 25.5099 189.114 24.9664C188.796 24.3637 188.639 23.691 188.655 23.0113C188.642 22.3243 188.794 21.6441 189.099 21.0271C189.394 20.4483 189.828 19.9498 190.362 19.5753C190.94 19.1774 191.586 18.8848 192.269 18.7115C193.052 18.5088 193.859 18.4104 194.669 18.4187C195.442 18.4114 196.215 18.4639 196.981 18.576C197.521 18.6631 198.055 18.7768 198.578 18.9123V18.7623C198.578 17.6347 198.251 16.7757 197.601 16.2143C196.952 15.653 196.002 15.3554 194.798 15.3554C194.089 15.3507 193.383 15.441 192.698 15.6239C192.052 15.8041 191.423 16.0372 190.816 16.3208L190.572 16.4345L189.803 14.3463L190.005 14.252C190.75 13.9079 191.525 13.6302 192.32 13.422C193.203 13.2089 194.109 13.1065 195.018 13.1171C196.92 13.1171 198.407 13.6011 199.44 14.5399C200.472 15.4788 201 16.9064 201 18.7429V27.161H198.58V25.5471C198.126 25.9997 197.613 26.3917 197.057 26.7134C196.103 27.2304 195.027 27.4837 193.941 27.4466ZM194.674 18.9075C193.907 18.8997 193.143 18.9924 192.4 19.1833C191.774 19.343 191.182 19.6109 190.65 19.9745C190.181 20.3019 189.799 20.738 189.539 21.2449C189.269 21.7946 189.135 22.4001 189.148 23.0113C189.132 23.6099 189.27 24.2026 189.549 24.7341C189.815 25.2156 190.183 25.6348 190.628 25.9633C191.092 26.3035 191.615 26.5576 192.171 26.7134C192.747 26.8759 193.344 26.9574 193.944 26.9554C194.941 26.9929 195.931 26.763 196.808 26.2899C197.509 25.8944 198.129 25.3706 198.634 24.7462L199.071 24.1848V26.6698H200.512V18.7429C200.512 17.0491 200.038 15.7498 199.103 14.8956C198.168 14.0415 196.786 13.6011 195.011 13.6011C194.143 13.5895 193.277 13.6871 192.435 13.8914C191.741 14.0727 191.063 14.3098 190.408 14.6004L190.84 15.774C191.394 15.5277 191.965 15.3215 192.549 15.1569C193.282 14.9626 194.038 14.8682 194.796 14.8763C196.121 14.8763 197.171 15.2053 197.921 15.8441C198.671 16.4829 199.061 17.4823 199.061 18.7478V19.5342L198.749 19.4471C198.141 19.2749 197.523 19.1392 196.898 19.0405C196.16 18.9382 195.416 18.8937 194.671 18.9075H194.674ZM194.346 25.8592C193.887 25.8607 193.43 25.7963 192.989 25.6681C192.572 25.548 192.18 25.3546 191.832 25.097C191.499 24.8522 191.223 24.5394 191.023 24.18C190.815 23.794 190.711 23.3616 190.721 22.9242C190.707 22.4895 190.801 22.0583 190.995 21.6681C191.189 21.2779 191.476 20.9407 191.832 20.6859C192.549 20.156 193.58 19.8874 194.893 19.8874C195.654 19.8806 196.414 19.943 197.164 20.0738C197.821 20.1947 198.409 20.3278 198.915 20.4657L199.093 20.5166V21.9926C199.099 22.5405 198.969 23.0815 198.714 23.5678C198.461 24.038 198.111 24.4501 197.687 24.7776C197.235 25.1249 196.726 25.3918 196.183 25.5665C195.59 25.7617 194.97 25.8606 194.346 25.8592ZM192.125 21.0755C191.829 21.2837 191.59 21.5618 191.43 21.8846C191.27 22.2075 191.194 22.5648 191.209 22.9242C191.201 23.2803 191.285 23.6326 191.453 23.9477C191.621 24.2469 191.85 24.5075 192.127 24.7123C192.43 24.9304 192.77 25.0942 193.13 25.1962C193.527 25.312 193.938 25.3699 194.351 25.368C194.922 25.3721 195.489 25.2846 196.031 25.1091C196.522 24.9515 196.981 24.7108 197.389 24.3977C197.76 24.1098 198.066 23.748 198.287 23.3355C198.505 22.9186 198.616 22.4548 198.61 21.9853V20.8771C198.16 20.761 197.633 20.6472 197.079 20.5408C196.359 20.4169 195.629 20.3578 194.898 20.3641C193.692 20.3641 192.759 20.6061 192.129 21.0682L192.125 21.0755Z" fill="black"/>
</g>
<defs>
<clipPath id="clip0">
<rect width="201" height="29" fill="white"/>
</clipPath>
</defs>
</svg>
