<svg width="171" height="29" viewBox="0 0 171 29" fill="none" xmlns="http://www.w3.org/2000/svg">
<path d="M5.95256 14.756C5.95256 15.114 6.54042 15.3587 6.87832 15.2318L8.41509 14.6495C8.82474 14.4977 8.87797 14.1692 8.87797 13.7433V11.4776C10.1604 11.1408 11.2745 10.3601 12.0135 9.28025C12.7525 8.20043 13.0664 6.89483 12.8968 5.6057C12.7272 4.31657 12.0857 3.13141 11.0913 2.27012C10.0969 1.40883 8.81707 0.929867 7.48933 0.922104C6.72406 0.920275 5.96703 1.07676 5.26785 1.3813C4.56867 1.68585 3.94311 2.13158 3.43217 2.68929C2.52091 3.67784 2.01698 4.96236 2.01807 6.2939C2.01807 6.38679 2.01807 6.48195 2.01807 6.57257C2.03174 6.83677 2.06578 7.09957 2.1199 7.35874C2.1199 7.3882 2.1199 7.41765 2.1361 7.4471C2.57353 9.4114 3.97143 10.9769 5.94099 11.4867L5.95256 14.756ZM7.49396 9.10554C6.94466 9.10554 6.4077 8.94609 5.95098 8.64735C5.49425 8.34861 5.13828 7.924 4.92808 7.42721C4.71787 6.93042 4.66287 6.38377 4.77003 5.85639C4.87719 5.329 5.14171 4.84457 5.53012 4.46434C5.91853 4.08412 6.41339 3.82518 6.95213 3.72028C7.49087 3.61538 8.0493 3.66922 8.55678 3.87499C9.06426 4.08077 9.49801 4.42924 9.80319 4.87633C10.1084 5.32343 10.2712 5.84907 10.2712 6.38679C10.2713 7.10589 9.98023 7.7957 9.46189 8.30524C8.94355 8.81478 8.2401 9.10254 7.50553 9.10554H7.49396Z M8.87134 16.2989V18.3085C8.87134 18.927 8.70471 19.1468 8.11222 19.3711L4.08283 20.8438C3.52969 21.0522 3.05061 21.0907 2.67105 20.8913L1.2824 20.3023C0.759345 20.0984 0.733887 19.7495 0.733887 19.1989V18.7911C0.733887 18.2179 1.13891 18.0502 1.68511 17.8463L7.90392 15.5807C8.54964 15.3473 8.87134 15.6192 8.87134 16.2989Z M8.87122 20.7191V23.2725C8.8856 23.4187 8.84715 23.5652 8.76258 23.6865C8.678 23.8078 8.55264 23.8962 8.40834 23.9363L3.6476 25.6423C3.50429 25.7062 3.34815 25.7378 3.19071 25.7346C3.03328 25.7315 2.87857 25.6938 2.73804 25.6242L1.11795 24.9944C1.00361 24.9498 0.905608 24.8726 0.836678 24.7728C0.767748 24.673 0.731083 24.5552 0.731448 24.4348V23.2408C0.731548 23.118 0.769944 22.9982 0.841498 22.8974C0.913051 22.7966 1.01435 22.7196 1.13184 22.6766L8.04266 20.1641C8.13489 20.1308 8.23392 20.1196 8.33146 20.1314C8.42901 20.1433 8.52225 20.1778 8.60337 20.2321C8.68449 20.2865 8.75113 20.3591 8.79773 20.4438C8.84433 20.5285 8.86953 20.6229 8.87122 20.7191Z M8.92917 25.2821L8.89909 27.6406C8.89909 28.0711 8.66765 28.1753 8.26494 28.0076L5.24001 26.7344C4.73315 26.5214 4.70306 25.9278 5.47145 25.7647L8.26262 24.761C8.66996 24.6069 8.92917 24.8607 8.92917 25.2821Z" fill="#FF5500"/>
<path d="M19.383 11.523H16.9136V25.2051H19.383V11.523Z M19.5382 6.45248H16.7817V9.07381H19.5382V6.45248Z M33.6653 12.7849C33.1893 12.2906 32.6087 11.904 31.9642 11.6521C31.241 11.3762 30.4698 11.2408 29.6937 11.2534C28.4833 11.2534 27.4812 11.5207 26.7128 12.0486C26.1768 12.4146 25.6982 12.855 25.2917 13.3559V11.5434H22.8223V25.2232H25.2917V17.4023C25.2864 16.8536 25.3828 16.3086 25.5764 15.7937C25.7566 15.3297 26.0314 14.9065 26.3841 14.5498C26.7294 14.2058 27.1439 13.9357 27.6015 13.7569C28.086 13.5685 28.6031 13.4739 29.1244 13.4782C30.27 13.4782 31.1217 13.8045 31.7258 14.4773C32.3299 15.1502 32.633 16.0859 32.633 17.2505V25.2028H35.1025V16.7656C35.1104 16.0089 34.986 15.2564 34.7345 14.5408C34.5059 13.8895 34.1418 13.2916 33.6653 12.7849Z M53.8586 11.242C53.2942 11.2353 52.7315 11.307 52.1876 11.455C51.7102 11.5878 51.2543 11.7861 50.8337 12.0441C50.439 12.2921 50.0782 12.5882 49.7598 12.9254C49.5367 13.163 49.3273 13.4126 49.1326 13.6731C48.7531 13.0269 48.2352 12.4688 47.6144 12.0373C46.7739 11.4833 45.7755 11.2048 44.763 11.242C44.2251 11.2375 43.6896 11.3139 43.1753 11.4686C42.738 11.6024 42.3226 11.797 41.9418 12.0463C41.5798 12.2806 41.2514 12.561 40.9651 12.8801C40.847 13.0138 40.7336 13.152 40.6202 13.2924V11.523H38.1484V25.2028H40.6179V17.4295C40.611 16.8846 40.7035 16.343 40.891 15.8299C41.0615 15.3717 41.3173 14.9485 41.6455 14.5816C41.9558 14.2366 42.3356 13.9581 42.7611 13.7637C43.1977 13.5722 43.6713 13.4749 44.1497 13.4782C45.1703 13.4782 45.948 13.7931 46.5289 14.4388C47.1098 15.0845 47.4014 16.0248 47.4014 17.1984V25.2028H49.8431V17.3524C49.8336 16.7857 49.9301 16.2221 50.1278 15.6895C50.2972 15.2375 50.5568 14.8232 50.8916 14.4706C51.204 14.1493 51.5827 13.8968 52.0025 13.7297C52.4326 13.5624 52.8913 13.4771 53.3541 13.4782C54.3933 13.4782 55.1802 13.7931 55.7611 14.4388C56.342 15.0845 56.6313 16.0248 56.6313 17.2505V25.2028H59.1008V16.7883C59.1008 15.0823 58.6379 13.7184 57.7121 12.7351C56.7864 11.7518 55.488 11.242 53.8586 11.242Z M71.8348 19.3235C71.8405 19.8727 71.7391 20.4178 71.5362 20.9299C71.352 21.3922 71.0794 21.8158 70.7331 22.1782C70.3952 22.524 69.9846 22.7938 69.5296 22.9689C69.0453 23.1577 68.528 23.2523 68.0067 23.2476C66.8773 23.2476 66.0025 22.9123 65.4054 22.2484C64.8082 21.5846 64.4958 20.6444 64.4958 19.4776V11.523H62.0263V19.9624C62.0175 20.719 62.1412 21.4716 62.392 22.1873C62.6218 22.8374 62.9858 23.4343 63.4613 23.9409C63.9368 24.4357 64.5175 24.8224 65.1623 25.0737C65.8853 25.3506 66.6565 25.4868 67.4328 25.4747C68.6432 25.4747 69.6453 25.2073 70.4137 24.6772C70.9497 24.3113 71.4284 23.8709 71.8348 23.3699V25.1824H74.2765V11.523H71.8348V19.3235Z M88.2667 13.3672C87.7008 12.7092 86.9967 12.1783 86.2023 11.8107C85.3429 11.4365 84.4132 11.242 83.4727 11.2396C82.5322 11.2373 81.6015 11.4272 80.7402 11.7971C79.9327 12.1585 79.209 12.6773 78.6133 13.3219C78.0086 13.9846 77.5375 14.7533 77.2247 15.5875C76.8897 16.4774 76.7212 17.419 76.727 18.3674C76.7156 19.3609 76.906 20.3466 77.2871 21.2674C77.6357 22.1122 78.1499 22.8819 78.8008 23.533C79.4347 24.1599 80.1912 24.6553 81.0249 24.9898C81.8823 25.3351 82.8011 25.5107 83.7281 25.5064C84.8863 25.5411 86.0358 25.2993 87.0771 24.8018C87.9815 24.3299 88.7914 23.7021 89.4679 22.9485L89.6183 22.7831L88.0306 21.392L87.8802 21.5438C87.3599 22.0728 86.7568 22.5172 86.0935 22.8601C85.3727 23.2005 84.579 23.3668 83.7791 23.345C83.2264 23.3472 82.6778 23.2528 82.159 23.0663C81.6469 22.879 81.1757 22.5984 80.7703 22.2394C80.3455 21.8604 79.999 21.4051 79.7497 20.8981C79.5052 20.398 79.345 19.8624 79.2752 19.3122H89.9215L89.9493 19.1219C89.967 19.001 89.9763 18.8792 89.9771 18.7571V18.4784C89.9825 17.5266 89.8373 16.5796 89.5466 15.6713C89.2779 14.8288 88.843 14.046 88.2667 13.3672ZM79.2752 17.4113C79.3463 16.9012 79.4872 16.4029 79.6941 15.9296C79.9111 15.4302 80.2132 14.9705 80.5875 14.5702C80.9425 14.1923 81.3684 13.8847 81.8419 13.664C82.3257 13.4455 82.8528 13.3341 83.3856 13.3377C83.9649 13.3258 84.5392 13.4452 85.0636 13.6866C85.5338 13.9118 85.952 14.2286 86.2925 14.6178C86.6382 15.02 86.9056 15.4807 87.0817 15.9772C87.2499 16.4357 87.364 16.9116 87.422 17.3955L79.2752 17.4113Z M104.285 13.1112C103.667 12.5123 102.935 12.0388 102.13 11.7178C101.352 11.4053 100.518 11.2437 99.6769 11.242C99.073 11.235 98.4717 11.3207 97.8949 11.4958C97.3836 11.6541 96.8958 11.8773 96.4437 12.1596C96.0093 12.4371 95.612 12.7666 95.2611 13.1406C95.0759 13.3377 94.8954 13.5416 94.7264 13.7478V6.06961H92.2593V25.2028H94.7264V23.1094C94.8884 23.302 95.0574 23.4877 95.2402 23.6713C95.5941 24.0253 95.9895 24.3371 96.4183 24.6002C96.877 24.876 97.3712 25.0909 97.8879 25.2391C98.4692 25.4035 99.0719 25.4844 99.6769 25.4792C100.529 25.4781 101.372 25.311 102.158 24.9876C102.959 24.6626 103.687 24.1851 104.299 23.5829C104.942 22.9408 105.452 22.182 105.799 21.349C106.189 20.3967 106.382 19.3777 106.366 18.3516C106.383 17.3224 106.19 16.3002 105.799 15.3451C105.45 14.5098 104.935 13.7505 104.285 13.1112ZM103.482 20.4473C103.264 21.0154 102.934 21.5358 102.51 21.9788C102.103 22.3888 101.613 22.71 101.07 22.9213C99.9506 23.364 98.6976 23.3551 97.5847 22.8964C97.0266 22.662 96.5179 22.3278 96.085 21.9109C95.6314 21.4713 95.2746 20.9454 95.0366 20.3657C94.7764 19.7252 94.6482 19.0407 94.6593 18.3516C94.6508 17.6652 94.783 16.9842 95.0481 16.3488C95.2886 15.7736 95.6452 15.2519 96.0966 14.8149C96.5259 14.3966 97.0304 14.0594 97.5847 13.8203C98.1296 13.5888 98.7173 13.4693 99.3113 13.4691C99.9096 13.4662 100.502 13.5818 101.054 13.809C101.598 14.0334 102.089 14.3668 102.494 14.7877C102.922 15.2363 103.257 15.7618 103.482 16.3352C103.733 16.9864 103.856 17.6782 103.845 18.3742C103.856 19.0813 103.733 19.7842 103.482 20.4473Z M111.492 6.06961H109.022V25.2051H111.492V6.06961Z M125.638 13.3672C125.072 12.7088 124.368 12.1779 123.573 11.8107C122.714 11.4365 121.784 11.242 120.844 11.2396C119.903 11.2373 118.973 11.4272 118.111 11.7971C117.304 12.159 116.581 12.6778 115.984 13.3219C115.38 13.9846 114.909 14.7533 114.596 15.5875C114.261 16.4804 114.093 17.4252 114.1 18.3765C114.09 19.3698 114.281 20.3554 114.661 21.2765C115.01 22.1209 115.524 22.8906 116.174 23.5421C116.809 24.1683 117.565 24.6636 118.398 24.9989C119.256 25.3438 120.175 25.5193 121.102 25.5155C122.26 25.5504 123.409 25.3086 124.451 24.8108C125.352 24.3371 126.158 23.7077 126.83 22.953L126.98 22.7876L125.395 21.3965L125.242 21.5483C124.722 22.0779 124.119 22.5223 123.455 22.8647C122.735 23.2055 121.941 23.3718 121.141 23.3495C120.588 23.3517 120.04 23.2573 119.521 23.0708C119.008 22.8836 118.537 22.6022 118.132 22.2416C117.707 21.8636 117.359 21.409 117.109 20.9026C116.868 20.4022 116.711 19.8665 116.646 19.3167H127.293L127.32 19.1264C127.338 19.0056 127.347 18.8837 127.348 18.7616V18.4784C127.354 17.5267 127.21 16.5798 126.92 15.6713C126.65 14.8286 126.215 14.0458 125.638 13.3672ZM116.646 17.4113C116.717 16.9012 116.858 16.4029 117.065 15.9296C117.282 15.4302 117.584 14.9705 117.959 14.5702C118.314 14.1917 118.741 13.884 119.215 13.664C119.698 13.4453 120.225 13.3339 120.757 13.3377C121.336 13.3302 121.909 13.4535 122.432 13.698C122.902 13.9231 123.319 14.24 123.659 14.6291C124.005 15.0317 124.273 15.4922 124.451 15.9885C124.617 16.4475 124.73 16.9232 124.788 17.4068L116.646 17.4113Z M137.888 18.4762C137.439 18.1682 136.951 17.9184 136.437 17.7331C135.916 17.5427 135.388 17.3683 134.867 17.2165C134.405 17.0806 133.976 16.9424 133.564 16.8087C133.193 16.6872 132.833 16.5356 132.488 16.3556C132.222 16.2199 131.986 16.0344 131.794 15.8095C131.638 15.6217 131.556 15.3854 131.562 15.1435V15.0913C131.561 14.8583 131.617 14.6284 131.725 14.4207C131.832 14.213 131.99 14.0336 132.183 13.8974C132.697 13.5377 133.32 13.3603 133.951 13.3944C134.616 13.4002 135.276 13.5127 135.904 13.7274C136.581 13.9537 137.227 14.2579 137.83 14.6337L138.027 14.756L139.184 12.8914L138.999 12.7736C138.258 12.3079 137.456 11.9421 136.615 11.6861C135.773 11.4209 134.895 11.2834 134.011 11.2783C133.362 11.2733 132.716 11.3681 132.097 11.5592C131.526 11.7298 130.994 12.0084 130.533 12.3794C130.102 12.7279 129.755 13.165 129.516 13.6595C129.272 14.1745 129.149 14.7365 129.155 15.3043V15.3542C129.138 15.9382 129.295 16.5146 129.607 17.0126C129.895 17.4482 130.273 17.8195 130.718 18.1024C131.184 18.3946 131.684 18.6305 132.208 18.8047C132.738 18.9837 133.273 19.1513 133.803 19.3077C134.236 19.4255 134.657 19.5546 135.059 19.6883C135.422 19.8046 135.772 19.9564 136.103 20.1414C136.365 20.2848 136.596 20.4773 136.781 20.7078C136.937 20.9133 137.018 21.1635 137.013 21.4192V21.4713C137.023 21.7367 136.964 22.0002 136.843 22.2378C136.722 22.4753 136.541 22.6791 136.319 22.8307C135.765 23.196 135.106 23.3779 134.439 23.3495C133.648 23.3463 132.865 23.2043 132.125 22.9304C131.325 22.6317 130.574 22.2195 129.896 21.707L129.709 21.5665L128.429 23.3337L128.595 23.4651C129.411 24.0923 130.325 24.5844 131.303 24.9219C132.274 25.2715 133.3 25.4532 134.335 25.4588C135 25.4641 135.662 25.3701 136.298 25.1802C136.877 25.0095 137.418 24.731 137.89 24.36C138.34 24.0014 138.708 23.5535 138.969 23.046C139.246 22.4938 139.385 21.8849 139.374 21.2697V21.2176C139.391 20.6494 139.248 20.0874 138.962 19.5931C138.686 19.1523 138.321 18.772 137.888 18.4762Z M149.229 19.0562C150.034 18.3765 150.735 17.7331 151.311 17.1621C151.846 16.6388 152.336 16.0727 152.774 15.4697C153.15 14.9531 153.447 14.3862 153.656 13.7863C153.851 13.1757 153.947 12.5389 153.941 11.8991C153.946 11.1687 153.798 10.4451 153.503 9.77391C153.217 9.13345 152.798 8.55854 152.272 8.08602C151.727 7.60551 151.094 7.23036 150.407 6.98039C149.649 6.70761 148.846 6.57248 148.039 6.58164C147.287 6.57248 146.537 6.66008 145.808 6.84219C145.175 7.00418 144.572 7.26015 144.019 7.60118C143.48 7.94632 142.992 8.36173 142.568 8.83594C142.099 9.35293 141.665 9.89853 141.267 10.4695L141.142 10.6484L143.024 11.9829L143.155 11.7994C143.748 10.9414 144.482 10.1851 145.326 9.56094C146.079 9.05555 146.976 8.79622 147.888 8.82008C148.343 8.81766 148.794 8.89438 149.222 9.04664C149.629 9.18503 150.003 9.40302 150.321 9.68734C150.639 9.97166 150.895 10.3164 151.073 10.7006C151.265 11.1184 151.361 11.5724 151.353 12.0305C151.353 12.4472 151.291 12.8618 151.168 13.2607C151.023 13.6958 150.812 14.1073 150.543 14.4819C150.195 14.9645 149.808 15.4191 149.386 15.8413C148.907 16.3284 148.312 16.8857 147.62 17.4952L140.908 23.3065V25.1915H154.151V22.9032H144.787L149.229 19.0562Z M167.563 6.70853H165.422L154.917 19.2284L155.528 20.9548H165.112V25.2028H167.563V20.9548H170.412V18.8183H167.563V6.70853ZM165.119 18.8183H158.136L165.119 10.4219V18.8183Z" fill="black"/>
</svg>
